<?xml version="1.0" encoding="UTF-8"?>
<!DOCTYPE svg PUBLIC "-//W3C//DTD SVG 1.1//EN" "http://www.w3.org/Graphics/SVG/1.1/DTD/svg11.dtd">
<svg xmlns="http://www.w3.org/2000/svg" version="1.1" width="310px" height="406px" style="shape-rendering:geometricPrecision; text-rendering:geometricPrecision; image-rendering:optimizeQuality; fill-rule:evenodd; clip-rule:evenodd" xmlns:xlink="http://www.w3.org/1999/xlink">
<g><path style="opacity:1" fill="#fefefe" d="M -0.5,-0.5 C 102.833,-0.5 206.167,-0.5 309.5,-0.5C 309.5,134.833 309.5,270.167 309.5,405.5C 206.167,405.5 102.833,405.5 -0.5,405.5C -0.5,270.167 -0.5,134.833 -0.5,-0.5 Z"/></g>
<g><path style="opacity:1" fill="#050606" d="M 61.5,30.5 C 123.501,30.3333 185.501,30.5 247.5,31C 261.804,34.7965 269.804,43.9631 271.5,58.5C 268.461,44.2927 259.794,35.4593 245.5,32C 183.999,31.8329 122.665,31.3329 61.5,30.5 Z"/></g>
<g><path style="opacity:1" fill="#2d2f33" d="M 61.5,30.5 C 122.665,31.3329 183.999,31.8329 245.5,32C 259.794,35.4593 268.461,44.2927 271.5,58.5C 271.667,153.501 271.5,248.501 271,343.5C 270.439,348.687 268.605,353.354 265.5,357.5C 265.624,358.107 265.957,358.44 266.5,358.5C 265.415,360.587 263.749,361.92 261.5,362.5C 258.421,364.02 255.088,364.853 251.5,365C 252.5,365.333 253.5,365.667 254.5,366C 251.637,367.399 248.637,368.399 245.5,369C 183.332,369.167 121.332,369.667 59.5,370.5C 46.8461,368.016 38.5128,360.683 34.5,348.5C 35.4511,347.081 35.7845,345.415 35.5,343.5C 35.3333,247.166 35.5,150.833 36,54.5C 36.9419,51.0073 38.2752,47.674 40,44.5C 42.705,41.9638 45.205,39.2971 47.5,36.5C 51.5126,33.1564 56.1793,31.1564 61.5,30.5 Z"/></g>
<g><path style="opacity:1" fill="#fdfefe" d="M 161.5,57.5 C 162.81,62.2883 164.81,66.7883 167.5,71C 193.498,71.5 219.498,71.6666 245.5,71.5C 245.842,72.3382 246.508,72.6716 247.5,72.5C 249.504,73.6728 251.004,75.3395 252,77.5C 252.5,155.833 252.667,234.166 252.5,312.5C 251.78,315.06 250.113,316.893 247.5,318C 184.834,318.5 122.168,318.667 59.5,318.5C 56.3252,318.16 54.1585,316.493 53,313.5C 52.5,234.501 52.3333,155.501 52.5,76.5C 54.208,74.4565 56.208,72.7899 58.5,71.5C 85.8354,71.6666 113.169,71.5 140.5,71C 141.056,70.6174 141.389,70.1174 141.5,69.5C 143.386,65.3759 145.386,61.2092 147.5,57C 152.252,56.2266 156.919,56.3932 161.5,57.5 Z"/></g>
<g><path style="opacity:1" fill="#020203" d="M 271.5,58.5 C 272.666,154.332 272.832,250.332 272,346.5C 270.957,350.915 269.124,354.915 266.5,358.5C 265.957,358.44 265.624,358.107 265.5,357.5C 268.605,353.354 270.439,348.687 271,343.5C 271.5,248.501 271.667,153.501 271.5,58.5 Z"/></g>
<g><path style="opacity:1" fill="#000000" d="M 141.5,69.5 C 141.389,70.1174 141.056,70.6174 140.5,71C 113.169,71.5 85.8354,71.6666 58.5,71.5C 84.761,70.6629 111.761,70.1629 139.5,70C 140.256,68.6197 140.922,68.453 141.5,69.5 Z"/></g>
<g><path style="opacity:1" fill="#030304" d="M 245.5,71.5 C 219.498,71.6666 193.498,71.5 167.5,71C 164.81,66.7883 162.81,62.2883 161.5,57.5C 163.712,61.0234 166.045,65.1901 168.5,70C 194.906,70.1626 220.572,70.6626 245.5,71.5 Z"/></g>
<g><path style="opacity:1" fill="#010102" d="M 247.5,72.5 C 250.038,72.118 251.871,73.4513 253,76.5C 253.832,155.334 253.666,234.001 252.5,312.5C 252.667,234.166 252.5,155.833 252,77.5C 251.004,75.3395 249.504,73.6728 247.5,72.5 Z"/></g>
<g><path style="opacity:1" fill="#247ae5" d="M 231.5,163.5 C 230.669,175.66 230.169,187.993 230,200.5C 229.692,206.247 228.859,211.914 227.5,217.5C 227.543,218.416 227.876,219.083 228.5,219.5C 220.999,244.841 206.332,265.007 184.5,280C 174.49,286.668 163.99,292.502 153,297.5C 122.962,284.821 99.6283,264.488 83,236.5C 78.5286,227.253 75.3619,217.586 73.5,207.5C 73.7542,185.846 73.7542,164.179 73.5,142.5C 73.7204,137.566 74.387,132.733 75.5,128C 102.488,122.921 128.488,114.754 153.5,103.5C 177.757,114.919 203.091,122.919 229.5,127.5C 230.641,139.47 231.307,151.47 231.5,163.5 Z"/></g>
<g><path style="opacity:1" fill="#fcfdfe" d="M 123.5,150.5 C 127.637,150.146 131.637,150.646 135.5,152C 139.078,156.713 141.912,161.879 144,167.5C 144.667,169.833 144.667,172.167 144,174.5C 141.354,177.98 138.521,181.314 135.5,184.5C 139.919,195.576 146.919,204.576 156.5,211.5C 160.955,208.937 165.622,206.937 170.5,205.5C 178.213,208.367 185.047,212.701 191,218.5C 193.9,224.923 192.4,230.09 186.5,234C 177.05,237.475 167.716,237.142 158.5,233C 132.843,220.356 117.51,200.023 112.5,172C 112.109,162.626 115.775,155.459 123.5,150.5 Z"/></g>
<g><path style="opacity:1" fill="#2160e1" d="M 73.5,142.5 C 73.7542,164.179 73.7542,185.846 73.5,207.5C 72.2858,185.854 72.2858,164.187 73.5,142.5 Z"/></g>
<g><path style="opacity:1" fill="#131517" d="M 52.5,76.5 C 52.3333,155.501 52.5,234.501 53,313.5C 54.1585,316.493 56.3252,318.16 59.5,318.5C 121.332,319.333 183.332,319.833 245.5,320C 183.167,320.667 120.833,320.667 58.5,320C 54.6667,318.833 52.1667,316.333 51,312.5C 50.3333,234.167 50.3333,155.833 51,77.5C 51.3333,76.8333 51.6667,76.1667 52,75.5C 52.3988,75.7284 52.5654,76.0618 52.5,76.5 Z"/></g>
<g><path style="opacity:1" fill="#2963e3" d="M 231.5,163.5 C 231.667,177.504 231.5,191.504 231,205.5C 230.653,210.297 229.819,214.963 228.5,219.5C 227.876,219.083 227.543,218.416 227.5,217.5C 228.859,211.914 229.692,206.247 230,200.5C 230.169,187.993 230.669,175.66 231.5,163.5 Z"/></g>
<g><path style="opacity:1" fill="#1f2226" d="M 47.5,36.5 C 45.205,39.2971 42.705,41.9638 40,44.5C 38.2752,47.674 36.9419,51.0073 36,54.5C 35.5,150.833 35.3333,247.166 35.5,343.5C 34.8333,248.5 34.1667,153.5 33.5,58.5C 34.6737,48.7925 39.3404,41.4592 47.5,36.5 Z"/></g>
<g><path style="opacity:1" fill="#010203" d="M 33.5,58.5 C 34.1667,153.5 34.8333,248.5 35.5,343.5C 35.7845,345.415 35.4511,347.081 34.5,348.5C 33.5094,251.855 33.1761,155.189 33.5,58.5 Z"/></g>
<g><path style="opacity:1" fill="#e1e4e6" d="M 135.5,340.5 C 148.171,340.333 160.838,340.5 173.5,341C 174.833,343.333 174.833,345.667 173.5,348C 160.5,348.667 147.5,348.667 134.5,348C 133.083,345.257 133.416,342.757 135.5,340.5 Z"/></g>
<g><path style="opacity:1" fill="#1d1f20" d="M 141.5,342.5 C 143.76,343.238 143.927,344.238 142,345.5C 140.272,344.648 140.105,343.648 141.5,342.5 Z"/></g>
<g><path style="opacity:1" fill="#505456" d="M 168.5,342.5 C 171.861,343.203 172.194,344.537 169.5,346.5C 167.358,345.563 167.024,344.23 168.5,342.5 Z"/></g>
<g><path style="opacity:1" fill="#020305" d="M 261.5,362.5 C 257.389,366.556 252.389,369.056 246.5,370C 184.168,370.5 121.834,370.667 59.5,370.5C 121.332,369.667 183.332,369.167 245.5,369C 248.637,368.399 251.637,367.399 254.5,366C 253.5,365.667 252.5,365.333 251.5,365C 255.088,364.853 258.421,364.02 261.5,362.5 Z"/></g>
</svg>
