<svg width="1040" height="1040" viewBox="0 0 1040 1040" fill="none" xmlns="http://www.w3.org/2000/svg">
<path d="M497.087 32.475C484.735 35.9616 471.785 39.747 468.199 40.7432C459.532 43.2336 453.854 44.8275 434.329 50.2068C416.398 55.1876 411.517 56.5823 406.934 57.9769C405.34 58.3754 387.11 63.5555 366.589 69.3332C318.674 82.7815 312.398 84.475 306.321 86.2681C303.631 87.065 290.183 90.8505 276.436 94.6359C262.789 98.4214 249.938 102.008 248.045 102.605C246.153 103.103 233.999 106.59 221.149 110.176C208.298 113.762 193.953 117.747 189.271 119.042C172.436 123.824 99.0185 144.444 93.6391 146.038C90.6506 146.835 87.4629 147.931 86.666 148.329C85.3709 149.027 85.1717 170.942 84.8729 334.812C84.574 540.621 84.0759 522.291 91.2483 550.881C99.0185 581.862 105.294 601.686 116.053 629.08C142.75 697.019 178.114 757.785 222.942 812.774C296.16 902.529 396.076 971.364 509.639 1010.11L520.597 1013.8L533.049 1009.42C561.34 999.356 581.463 990.789 608.16 977.739C635.555 964.291 645.417 958.713 669.425 943.471C774.919 876.628 858.697 778.107 911.693 658.567C930.72 615.533 945.662 569.709 953.333 531.057C955.325 520.996 955.325 517.31 955.325 335.211C955.325 187.977 955.026 149.425 954.13 148.628C953.432 148.13 945.463 145.64 936.398 143.05C927.333 140.559 918.367 137.969 916.474 137.471C914.582 136.873 893.762 131.096 870.153 124.421C846.643 117.847 825.126 111.87 822.336 111.073C819.647 110.276 809.287 107.387 799.425 104.598C789.563 101.808 778.405 98.7202 774.52 97.6244C770.735 96.5286 766.252 95.2336 764.559 94.7355C762.965 94.3371 759.777 93.4405 757.586 92.7432C755.394 92.1455 743.938 88.9578 732.183 85.6704C720.428 82.383 709.172 79.2949 707.279 78.6972C697.616 75.9079 659.363 65.1493 640.038 59.77C627.984 56.4827 615.93 52.9961 613.141 52.1991C607.563 50.6053 606.766 50.406 586.743 44.8275C578.773 42.6359 569.808 40.1455 566.819 39.2489C563.831 38.3524 559.149 37.0574 556.359 36.2604C553.67 35.5631 544.904 33.0727 536.934 30.8811C528.965 28.5899 521.792 26.5976 520.995 26.3984C520.199 26.1991 509.44 28.9884 497.087 32.475ZM539.524 129.402C553.969 133.387 594.612 144.843 610.651 149.425C612.543 150.023 626.29 153.808 641.034 157.992C655.877 162.077 670.222 166.161 672.911 166.958C675.7 167.755 697.218 173.732 720.727 180.406C744.336 186.981 766.451 193.257 770.038 194.253C773.624 195.249 786.375 198.835 798.428 202.222C822.735 208.996 823.93 209.295 845.248 215.372L860.191 219.655L860.49 366.59C860.689 464.115 860.39 515.517 859.693 519.601C859.195 522.889 857.103 531.456 855.21 538.529C834.789 612.942 800.222 682.375 754.199 741.149C726.505 776.513 689.149 813.272 654.482 839.372C639.54 850.529 604.873 873.64 602.98 873.64C602.681 873.64 601.287 874.437 599.892 875.533C590.03 882.506 535.241 908.904 522.191 912.889L519.999 913.586L520.199 832.598L520.497 751.609L533.448 750.912C614.038 746.828 688.053 704.49 732.781 637.05C775.118 573.295 786.773 494.299 764.459 421.678C742.045 348.46 688.551 289.586 617.624 259.701C592.72 249.241 566.72 243.264 535.739 240.873L519.999 239.678V182.1C519.999 150.421 520.398 124.521 520.796 124.521C521.294 124.521 529.762 126.713 539.524 129.402ZM550.084 294.368C619.317 304.927 679.486 351.05 706.881 414.605C718.436 441.402 723.317 465.609 723.317 496.092C723.317 520.996 720.727 537.234 713.156 560.345C696.819 609.655 660.758 652.092 614.536 676.199C585.248 691.441 559.448 698.115 526.275 699.011C494.796 699.908 471.087 695.824 443.294 684.667C389.501 662.95 348.658 620.414 327.938 564.329C315.386 530.559 312.995 485.533 321.762 448.774C330.528 412.015 349.156 378.843 376.451 351.647C398.268 329.931 423.67 313.793 452.16 303.732C463.915 299.548 482.045 295.264 493.202 293.969C498.382 293.372 504.16 292.674 506.053 292.475C512.727 291.678 540.421 292.873 550.084 294.368Z" fill="black"/>
<path d="M426.161 358.022C417.793 361.11 389.302 379.539 385.019 384.62C379.341 391.394 379.54 398.168 386.115 421.976C396.973 461.723 418.888 501.172 449.77 536.436C461.724 550.084 464.413 552.773 475.869 563.034C497.088 581.961 518.306 596.804 542.214 609.156C565.823 621.409 585.448 628.482 609.256 633.562C626.092 637.149 629.678 635.256 642.03 616.628C660.459 588.934 662.153 583.057 655.18 570.505C643.724 550.084 624 534.244 600.49 526.474C586.444 521.892 582.559 523.087 566.321 536.635C551.08 549.386 549.586 550.283 542.513 550.681C536.934 550.98 535.938 550.681 530.459 547.394C514.421 537.631 489.616 514.819 477.862 499.08C467.9 485.631 465.21 480.451 465.21 474.474C465.21 467.501 466.306 465.509 479.256 449.471C493.302 432.137 493.9 430.145 489.517 416.198C481.846 391.992 468.199 374.559 446.881 361.608C439.111 356.827 432.337 355.631 426.161 358.022Z" fill="black"/>
</svg>
