<svg width="4051" height="1058" viewBox="0 0 4051 1058" fill="none" xmlns="http://www.w3.org/2000/svg">
<path d="M497.087 41.475C484.735 44.9616 471.785 48.747 468.199 49.7432C459.532 52.2336 453.854 53.8275 434.329 59.2068C416.398 64.1876 411.517 65.5823 406.934 66.9769C405.34 67.3754 387.11 72.5555 366.589 78.3332C318.674 91.7815 312.398 93.475 306.321 95.2681C303.631 96.065 290.183 99.8505 276.436 103.636C262.789 107.421 249.938 111.008 248.045 111.605C246.153 112.103 233.999 115.59 221.149 119.176C208.298 122.762 193.953 126.747 189.271 128.042C172.436 132.824 99.0185 153.444 93.6391 155.038C90.6506 155.835 87.4629 156.931 86.666 157.329C85.3709 158.027 85.1717 179.942 84.8729 343.812C84.574 549.621 84.0759 531.291 91.2483 559.881C99.0185 590.862 105.294 610.686 116.053 638.08C142.75 706.019 178.114 766.785 222.942 821.774C296.16 911.529 396.076 980.364 509.639 1019.11L520.597 1022.8L533.049 1018.42C561.34 1008.36 581.463 999.789 608.16 986.739C635.555 973.291 645.417 967.713 669.425 952.471C774.919 885.628 858.697 787.107 911.693 667.567C930.72 624.533 945.662 578.709 953.333 540.057C955.325 529.996 955.325 526.31 955.325 344.211C955.325 196.977 955.026 158.425 954.13 157.628C953.432 157.13 945.463 154.64 936.398 152.05C927.333 149.559 918.367 146.969 916.474 146.471C914.582 145.873 893.762 140.096 870.153 133.421C846.643 126.847 825.126 120.87 822.336 120.073C819.647 119.276 809.287 116.387 799.425 113.598C789.563 110.808 778.405 107.72 774.52 106.624C770.735 105.529 766.252 104.234 764.559 103.736C762.965 103.337 759.777 102.441 757.586 101.743C755.394 101.145 743.938 97.9578 732.183 94.6704C720.428 91.383 709.172 88.2949 707.279 87.6972C697.616 84.9079 659.363 74.1493 640.038 68.77C627.984 65.4827 615.93 61.9961 613.141 61.1991C607.563 59.6053 606.766 59.406 586.743 53.8275C578.773 51.6359 569.808 49.1455 566.819 48.2489C563.831 47.3524 559.149 46.0574 556.359 45.2604C553.67 44.5631 544.904 42.0727 536.934 39.8811C528.965 37.5899 521.792 35.5976 520.995 35.3984C520.199 35.1991 509.44 37.9884 497.087 41.475ZM539.524 138.402C553.969 142.387 594.612 153.843 610.651 158.425C612.543 159.023 626.29 162.808 641.034 166.992C655.877 171.077 670.222 175.161 672.911 175.958C675.7 176.755 697.218 182.732 720.727 189.406C744.336 195.981 766.451 202.257 770.038 203.253C773.624 204.249 786.375 207.835 798.428 211.222C822.735 217.996 823.93 218.295 845.248 224.372L860.191 228.655L860.49 375.59C860.689 473.115 860.39 524.517 859.693 528.601C859.195 531.889 857.103 540.456 855.21 547.529C834.789 621.942 800.222 691.375 754.199 750.149C726.505 785.513 689.149 822.272 654.482 848.372C639.54 859.529 604.873 882.64 602.98 882.64C602.681 882.64 601.287 883.437 599.892 884.533C590.03 891.506 535.241 917.904 522.191 921.889L519.999 922.586L520.199 841.598L520.497 760.609L533.448 759.912C614.038 755.828 688.053 713.49 732.781 646.05C775.118 582.295 786.773 503.299 764.459 430.678C742.045 357.46 688.551 298.586 617.624 268.701C592.72 258.241 566.72 252.264 535.739 249.873L519.999 248.678V191.1C519.999 159.421 520.398 133.521 520.796 133.521C521.294 133.521 529.762 135.713 539.524 138.402ZM550.084 303.368C619.317 313.927 679.486 360.05 706.881 423.605C718.436 450.402 723.317 474.609 723.317 505.092C723.317 529.996 720.727 546.234 713.156 569.345C696.819 618.655 660.758 661.092 614.536 685.199C585.248 700.441 559.448 707.115 526.275 708.011C494.796 708.908 471.087 704.824 443.294 693.667C389.501 671.95 348.658 629.414 327.938 573.329C315.386 539.559 312.995 494.533 321.762 457.774C330.528 421.015 349.156 387.843 376.451 360.647C398.268 338.931 423.67 322.793 452.16 312.732C463.915 308.548 482.045 304.264 493.202 302.969C498.382 302.372 504.16 301.674 506.053 301.475C512.727 300.678 540.421 301.873 550.084 303.368Z" fill="black"/>
<path d="M426.161 367.022C417.793 370.11 389.302 388.539 385.019 393.62C379.341 400.394 379.54 407.168 386.115 430.976C396.973 470.723 418.888 510.172 449.77 545.436C461.724 559.084 464.413 561.773 475.869 572.034C497.088 590.961 518.306 605.804 542.214 618.156C565.823 630.409 585.448 637.482 609.256 642.562C626.092 646.149 629.678 644.256 642.03 625.628C660.459 597.934 662.153 592.057 655.18 579.505C643.724 559.084 624 543.244 600.49 535.474C586.444 530.892 582.559 532.087 566.321 545.635C551.08 558.386 549.586 559.283 542.513 559.681C536.934 559.98 535.938 559.681 530.459 556.394C514.421 546.631 489.616 523.819 477.862 508.08C467.9 494.631 465.21 489.451 465.21 483.474C465.21 476.501 466.306 474.509 479.256 458.471C493.302 441.137 493.9 439.145 489.517 425.198C481.846 400.992 468.199 383.559 446.881 370.608C439.111 365.827 432.337 364.631 426.161 367.022Z" fill="black"/>
<path d="M1263.4 273.7H1602.9V363.3H1369.8V477.4H1541.3V559.3H1369.8V763H1263.4V273.7ZM1783.24 773.5C1742.64 773.5 1706.94 766.267 1676.14 751.8C1645.81 736.867 1622.24 716.1 1605.44 689.5C1589.11 662.433 1580.94 630.933 1580.94 595C1580.94 560 1589.11 528.967 1605.44 501.9C1622.24 474.833 1645.81 453.833 1676.14 438.9C1706.94 423.967 1742.64 416.5 1783.24 416.5C1823.38 416.5 1858.61 423.967 1888.94 438.9C1919.74 453.833 1943.31 474.833 1959.64 501.9C1976.44 528.967 1984.84 560 1984.84 595C1984.84 630.933 1976.44 662.433 1959.64 689.5C1943.31 716.1 1919.98 736.867 1889.64 751.8C1859.31 766.267 1823.84 773.5 1783.24 773.5ZM1783.24 690.9C1811.71 690.9 1834.34 682.267 1851.14 665C1867.94 647.267 1876.34 623.933 1876.34 595C1876.34 565.133 1867.94 541.8 1851.14 525C1834.81 507.733 1812.18 499.1 1783.24 499.1C1754.31 499.1 1731.44 507.733 1714.64 525C1697.84 541.8 1689.44 565.133 1689.44 595C1689.44 623.933 1697.84 647.267 1714.64 665C1731.91 682.267 1754.78 690.9 1783.24 690.9ZM2044.06 427H2146.26V468.3C2161.66 451.033 2179.86 438.2 2200.86 429.8C2222.33 420.933 2244.73 416.5 2268.06 416.5C2313.8 416.5 2347.86 428.867 2370.26 453.6C2393.13 477.867 2404.56 510.767 2404.56 552.3V763H2298.86V564.2C2298.86 520.8 2278.8 499.1 2238.66 499.1C2220.93 499.1 2204.36 503.533 2188.96 512.4C2173.56 520.8 2160.5 533.4 2149.76 550.2V763H2044.06V427ZM2621.73 773.5C2591.86 773.5 2562.23 770.7 2532.83 765.1C2503.43 759.5 2479.39 752.033 2460.73 742.7V648.9C2485.46 661.033 2511.13 670.133 2537.73 676.2C2564.33 682.267 2589.76 685.3 2614.03 685.3C2641.09 685.3 2661.63 680.633 2675.63 671.3C2689.63 661.967 2696.63 648.9 2696.63 632.1C2696.63 619.967 2693.13 609.7 2686.13 601.3C2679.13 592.9 2668.86 585.433 2655.33 578.9C2642.26 571.9 2621.96 562.8 2594.43 551.6C2548.69 532.933 2515.56 512.167 2495.03 489.3C2474.49 465.967 2464.23 437.267 2464.23 403.2C2464.23 375.667 2471.69 351.4 2486.63 330.4C2501.56 308.933 2522.56 292.367 2549.63 280.7C2576.69 269.033 2607.96 263.2 2643.43 263.2C2672.36 263.2 2698.03 265.533 2720.43 270.2C2742.83 274.867 2764.76 282.1 2786.23 291.9V382.9C2745.16 362.367 2704.09 352.1 2663.03 352.1C2636.89 352.1 2616.36 356.767 2601.43 366.1C2586.49 374.967 2579.03 387.8 2579.03 404.6C2579.03 416.733 2582.53 426.767 2589.53 434.7C2596.53 442.633 2606.33 449.633 2618.93 455.7C2631.53 461.767 2652.06 470.633 2680.53 482.3C2713.66 496.3 2739.56 509.833 2758.23 522.9C2776.89 535.5 2790.66 550.667 2799.53 568.4C2808.39 585.667 2812.83 607.133 2812.83 632.8C2812.83 677.133 2796.73 711.667 2764.53 736.4C2732.79 761.133 2685.19 773.5 2621.73 773.5ZM2987.63 773.5C2946.56 773.5 2912.96 763.233 2886.83 742.7C2861.16 721.7 2848.33 693.233 2848.33 657.3C2848.33 619.967 2860.69 591.033 2885.43 570.5C2910.16 549.5 2945.16 539 2990.43 539C3010.49 539 3029.63 541.1 3047.83 545.3C3066.03 549.5 3082.13 555.333 3096.13 562.8V554.4C3096.13 533.4 3088.66 518 3073.73 508.2C3058.79 498.4 3035.93 493.5 3005.13 493.5C2964.06 493.5 2926.26 501.2 2891.73 516.6V439.6C2906.66 433.067 2926.03 427.7 2949.83 423.5C2973.63 418.833 2997.43 416.5 3021.23 416.5C3081.89 416.5 3127.16 429.1 3157.03 454.3C3186.89 479.033 3201.83 513.8 3201.83 558.6V763H3102.43V732.2C3073.96 759.733 3035.69 773.5 2987.63 773.5ZM3016.33 703.5C3033.59 703.5 3049.23 700.233 3063.23 693.7C3077.23 687.167 3088.19 678.067 3096.13 666.4V632.8C3072.33 616.933 3046.19 609 3017.73 609C2998.13 609 2982.96 613.2 2972.23 621.6C2961.96 629.533 2956.83 641.433 2956.83 657.3C2956.83 672.233 2961.96 683.667 2972.23 691.6C2982.49 699.533 2997.19 703.5 3016.33 703.5ZM3231.95 427H3320.85L3411.85 659.4L3502.85 427H3591.75L3453.15 763H3370.55L3231.95 427ZM3858.06 773.5C3793.66 773.5 3743.03 758.1 3706.16 727.3C3669.3 696.033 3650.86 652.4 3650.86 596.4C3650.86 540.867 3667.2 497 3699.86 464.8C3733 432.6 3780.13 416.5 3841.26 416.5C3881.4 416.5 3915.46 423.967 3943.46 438.9C3971.46 453.833 3992.7 474.6 4007.16 501.2C4021.63 527.333 4028.86 556.967 4028.86 590.1V632.8H3751.66C3759.13 675.733 3799.26 697.2 3872.06 697.2C3893.53 697.2 3915.7 695.333 3938.56 691.6C3961.43 687.867 3981.26 682.733 3998.06 676.2V750.4C3981.73 757.4 3960.73 763 3935.06 767.2C3909.4 771.4 3883.73 773.5 3858.06 773.5ZM3928.76 564.2C3927.36 541.8 3918.96 524.533 3903.56 512.4C3888.16 499.8 3866.93 493.5 3839.86 493.5C3813.26 493.5 3792.26 499.8 3776.86 512.4C3761.46 525 3753.06 542.267 3751.66 564.2H3928.76Z" fill="black"/>
</svg>
