<svg width="4070" height="1058" viewBox="0 0 4070 1058" fill="none" xmlns="http://www.w3.org/2000/svg">
<path d="M1282.4 273.7H1621.9V363.3H1388.8V477.4H1560.3V559.3H1388.8V763H1282.4V273.7ZM1802.24 773.5C1761.64 773.5 1725.94 766.267 1695.14 751.8C1664.81 736.867 1641.24 716.1 1624.44 689.5C1608.11 662.433 1599.94 630.933 1599.94 595C1599.94 560 1608.11 528.967 1624.44 501.9C1641.24 474.833 1664.81 453.833 1695.14 438.9C1725.94 423.967 1761.64 416.5 1802.24 416.5C1842.38 416.5 1877.61 423.967 1907.94 438.9C1938.74 453.833 1962.31 474.833 1978.64 501.9C1995.44 528.967 2003.84 560 2003.84 595C2003.84 630.933 1995.44 662.433 1978.64 689.5C1962.31 716.1 1938.98 736.867 1908.64 751.8C1878.31 766.267 1842.84 773.5 1802.24 773.5ZM1802.24 690.9C1830.71 690.9 1853.34 682.267 1870.14 665C1886.94 647.267 1895.34 623.933 1895.34 595C1895.34 565.133 1886.94 541.8 1870.14 525C1853.81 507.733 1831.18 499.1 1802.24 499.1C1773.31 499.1 1750.44 507.733 1733.64 525C1716.84 541.8 1708.44 565.133 1708.44 595C1708.44 623.933 1716.84 647.267 1733.64 665C1750.91 682.267 1773.78 690.9 1802.24 690.9ZM2063.06 427H2165.26V468.3C2180.66 451.033 2198.86 438.2 2219.86 429.8C2241.33 420.933 2263.73 416.5 2287.06 416.5C2332.8 416.5 2366.86 428.867 2389.26 453.6C2412.13 477.867 2423.56 510.767 2423.56 552.3V763H2317.86V564.2C2317.86 520.8 2297.8 499.1 2257.66 499.1C2239.93 499.1 2223.36 503.533 2207.96 512.4C2192.56 520.8 2179.5 533.4 2168.76 550.2V763H2063.06V427ZM2640.73 773.5C2610.86 773.5 2581.23 770.7 2551.83 765.1C2522.43 759.5 2498.39 752.033 2479.73 742.7V648.9C2504.46 661.033 2530.13 670.133 2556.73 676.2C2583.33 682.267 2608.76 685.3 2633.03 685.3C2660.09 685.3 2680.63 680.633 2694.63 671.3C2708.63 661.967 2715.63 648.9 2715.63 632.1C2715.63 619.967 2712.13 609.7 2705.13 601.3C2698.13 592.9 2687.86 585.433 2674.33 578.9C2661.26 571.9 2640.96 562.8 2613.43 551.6C2567.69 532.933 2534.56 512.167 2514.03 489.3C2493.49 465.967 2483.23 437.267 2483.23 403.2C2483.23 375.667 2490.69 351.4 2505.63 330.4C2520.56 308.933 2541.56 292.367 2568.63 280.7C2595.69 269.033 2626.96 263.2 2662.43 263.2C2691.36 263.2 2717.03 265.533 2739.43 270.2C2761.83 274.867 2783.76 282.1 2805.23 291.9V382.9C2764.16 362.367 2723.09 352.1 2682.03 352.1C2655.89 352.1 2635.36 356.767 2620.43 366.1C2605.49 374.967 2598.03 387.8 2598.03 404.6C2598.03 416.733 2601.53 426.767 2608.53 434.7C2615.53 442.633 2625.33 449.633 2637.93 455.7C2650.53 461.767 2671.06 470.633 2699.53 482.3C2732.66 496.3 2758.56 509.833 2777.23 522.9C2795.89 535.5 2809.66 550.667 2818.53 568.4C2827.39 585.667 2831.83 607.133 2831.83 632.8C2831.83 677.133 2815.73 711.667 2783.53 736.4C2751.79 761.133 2704.19 773.5 2640.73 773.5ZM3006.63 773.5C2965.56 773.5 2931.96 763.233 2905.83 742.7C2880.16 721.7 2867.33 693.233 2867.33 657.3C2867.33 619.967 2879.69 591.033 2904.43 570.5C2929.16 549.5 2964.16 539 3009.43 539C3029.49 539 3048.63 541.1 3066.83 545.3C3085.03 549.5 3101.13 555.333 3115.13 562.8V554.4C3115.13 533.4 3107.66 518 3092.73 508.2C3077.79 498.4 3054.93 493.5 3024.13 493.5C2983.06 493.5 2945.26 501.2 2910.73 516.6V439.6C2925.66 433.067 2945.03 427.7 2968.83 423.5C2992.63 418.833 3016.43 416.5 3040.23 416.5C3100.89 416.5 3146.16 429.1 3176.03 454.3C3205.89 479.033 3220.83 513.8 3220.83 558.6V763H3121.43V732.2C3092.96 759.733 3054.69 773.5 3006.63 773.5ZM3035.33 703.5C3052.59 703.5 3068.23 700.233 3082.23 693.7C3096.23 687.167 3107.19 678.067 3115.13 666.4V632.8C3091.33 616.933 3065.19 609 3036.73 609C3017.13 609 3001.96 613.2 2991.23 621.6C2980.96 629.533 2975.83 641.433 2975.83 657.3C2975.83 672.233 2980.96 683.667 2991.23 691.6C3001.49 699.533 3016.19 703.5 3035.33 703.5ZM3250.95 427H3339.85L3430.85 659.4L3521.85 427H3610.75L3472.15 763H3389.55L3250.95 427ZM3877.06 773.5C3812.66 773.5 3762.03 758.1 3725.16 727.3C3688.3 696.033 3669.86 652.4 3669.86 596.4C3669.86 540.867 3686.2 497 3718.86 464.8C3752 432.6 3799.13 416.5 3860.26 416.5C3900.4 416.5 3934.46 423.967 3962.46 438.9C3990.46 453.833 4011.7 474.6 4026.16 501.2C4040.63 527.333 4047.86 556.967 4047.86 590.1V632.8H3770.66C3778.13 675.733 3818.26 697.2 3891.06 697.2C3912.53 697.2 3934.7 695.333 3957.56 691.6C3980.43 687.867 4000.26 682.733 4017.06 676.2V750.4C4000.73 757.4 3979.73 763 3954.06 767.2C3928.4 771.4 3902.73 773.5 3877.06 773.5ZM3947.76 564.2C3946.36 541.8 3937.96 524.533 3922.56 512.4C3907.16 499.8 3885.93 493.5 3858.86 493.5C3832.26 493.5 3811.26 499.8 3795.86 512.4C3780.46 525 3772.06 542.267 3770.66 564.2H3947.76Z" fill="black"/>
<path d="M0 245C0 134.543 89.543 45 200 45H759.16C869.617 45 959.159 134.543 959.159 245V812C959.159 922.457 869.616 1012 759.159 1012H200C89.5429 1012 0 922.457 0 812V245Z" fill="url(#paint0_linear_405_72)"/>
<path d="M461.555 136.967C451.623 139.77 441.21 142.814 438.327 143.615C431.358 145.617 426.793 146.899 411.094 151.224C396.677 155.229 392.752 156.35 389.067 157.472C387.786 157.792 373.128 161.957 356.628 166.603C318.102 177.416 313.055 178.777 308.17 180.219C306.007 180.86 295.194 183.903 284.141 186.947C273.167 189.991 262.835 192.874 261.313 193.355C259.791 193.755 250.019 196.559 239.687 199.442C229.354 202.326 217.82 205.53 214.056 206.571C200.52 210.415 141.488 226.996 137.163 228.277C134.76 228.918 132.197 229.799 131.556 230.119C130.515 230.68 130.355 248.301 130.114 380.06C129.874 545.54 129.474 530.803 135.241 553.79C141.488 578.7 146.534 594.64 155.185 616.666C176.651 671.292 205.085 720.151 241.129 764.365C300 836.532 380.337 891.879 471.647 923.036L480.458 926L490.47 922.476C513.217 914.386 529.397 907.498 550.863 897.005C572.889 886.192 580.819 881.706 600.122 869.452C684.945 815.707 752.306 736.491 794.918 640.375C810.216 605.773 822.231 568.929 828.398 537.851C830 529.761 830 526.798 830 380.381C830 261.998 829.76 231 829.039 230.36C828.478 229.959 822.07 227.957 814.782 225.874C807.493 223.872 800.284 221.789 798.762 221.389C797.24 220.908 780.5 216.263 761.517 210.896C742.614 205.61 725.313 200.804 723.071 200.163C720.908 199.522 712.578 197.2 704.649 194.957C696.719 192.714 687.748 190.231 684.624 189.35C681.581 188.469 677.976 187.428 676.615 187.027C675.333 186.707 672.77 185.986 671.008 185.425C669.246 184.945 660.035 182.382 650.583 179.738C641.132 177.095 632.081 174.612 630.559 174.132C622.79 171.889 592.032 163.238 576.494 158.913C566.802 156.27 557.11 153.467 554.868 152.826C550.382 151.544 549.741 151.384 533.642 146.899C527.234 145.137 520.025 143.134 517.623 142.413C515.22 141.692 511.455 140.651 509.212 140.01C507.05 139.45 500.001 137.447 493.594 135.685C487.186 133.843 481.419 132.241 480.778 132.081C480.137 131.921 471.487 134.163 461.555 136.967ZM495.676 214.901C507.29 218.105 539.97 227.316 552.865 231C554.387 231.481 565.44 234.525 577.295 237.889C589.229 241.173 600.763 244.457 602.926 245.097C605.168 245.738 622.469 250.544 641.372 255.91C660.355 261.197 678.136 266.243 681.02 267.044C683.903 267.845 694.156 270.728 703.848 273.452C723.391 278.898 724.352 279.139 741.493 284.024L753.508 287.469L753.748 405.611C753.908 484.026 753.668 525.356 753.107 528.64C752.707 531.283 751.025 538.171 749.503 543.858C733.083 603.691 705.289 659.518 668.285 706.775C646.018 735.21 615.981 764.765 588.108 785.751C576.093 794.721 548.22 813.304 546.698 813.304C546.457 813.304 545.336 813.945 544.215 814.826C536.285 820.432 492.232 841.658 481.739 844.862L479.977 845.423L480.137 780.304L480.378 715.185L490.79 714.625C555.588 711.341 615.1 677.3 651.064 623.074C685.105 571.812 694.476 508.295 676.535 449.905C658.513 391.034 615.501 343.697 558.472 319.667C538.448 311.257 517.542 306.452 492.632 304.529L479.977 303.568V257.272C479.977 231.801 480.298 210.976 480.618 210.976C481.018 210.976 487.827 212.738 495.676 214.901ZM504.166 347.541C559.834 356.031 608.212 393.116 630.239 444.218C639.53 465.764 643.455 485.227 643.455 509.737C643.455 529.761 641.372 542.817 635.285 561.4C622.149 601.047 593.154 635.169 555.989 654.552C532.44 666.807 511.695 672.173 485.023 672.894C459.713 673.615 440.65 670.331 418.303 661.36C375.05 643.899 342.211 609.698 325.551 564.603C315.458 537.451 313.536 501.247 320.585 471.691C327.633 442.135 342.611 415.463 364.558 393.597C382.099 376.136 402.524 363.16 425.431 355.07C434.883 351.706 449.46 348.262 458.431 347.221C462.596 346.74 467.242 346.18 468.764 346.019C474.13 345.379 496.397 346.34 504.166 347.541Z" fill="white"/>
<path d="M404.526 398.721C397.798 401.204 374.89 416.021 371.446 420.106C366.88 425.553 367.041 431 372.327 450.143C381.058 482.101 398.679 513.82 423.509 542.174C433.12 553.147 435.283 555.31 444.494 563.56C461.555 578.778 478.615 590.712 497.839 600.644C516.822 610.496 532.601 616.183 551.744 620.268C565.28 623.152 568.164 621.63 578.096 606.652C592.913 584.385 594.275 579.659 588.668 569.567C579.457 553.147 563.598 540.412 544.695 534.164C533.402 530.48 530.278 531.441 517.222 542.334C504.967 552.586 503.766 553.307 498.079 553.628C493.593 553.868 492.792 553.628 488.387 550.984C475.492 543.135 455.547 524.793 446.096 512.138C438.086 501.324 435.924 497.159 435.924 492.354C435.924 486.747 436.805 485.145 447.217 472.249C458.511 458.313 458.992 456.711 455.467 445.497C449.3 426.034 438.327 412.017 421.186 401.604C414.938 397.759 409.492 396.798 404.526 398.721Z" fill="white"/>
<defs>
<linearGradient id="paint0_linear_405_72" x1="959.159" y1="528.5" x2="0" y2="528.5" gradientUnits="userSpaceOnUse">
<stop stop-color="#00EA9C"/>
<stop offset="1" stop-color="#001F9B"/>
</linearGradient>
</defs>
</svg>
