<?xml version="1.0" encoding="UTF-8"?>
<!DOCTYPE svg PUBLIC "-//W3C//DTD SVG 1.1//EN" "http://www.w3.org/Graphics/SVG/1.1/DTD/svg11.dtd">
<svg xmlns="http://www.w3.org/2000/svg" version="1.1" width="1211px" height="376px" style="shape-rendering:geometricPrecision; text-rendering:geometricPrecision; image-rendering:optimizeQuality; fill-rule:evenodd; clip-rule:evenodd" xmlns:xlink="http://www.w3.org/1999/xlink">
<g><path style="opacity:0.223" fill="#343538" d="M 241.5,20.5 C 240.833,20.5 240.167,20.5 239.5,20.5C 175.61,19.506 111.944,19.1726 48.5,19.5C 111.332,18.3347 174.332,18.168 237.5,19C 239.058,19.21 240.391,19.71 241.5,20.5 Z"/></g>
<g><path style="opacity:0.961" fill="#040405" d="M 48.5,19.5 C 111.944,19.1726 175.61,19.506 239.5,20.5C 239.5,20.8333 239.5,21.1667 239.5,21.5C 176.851,20.3517 114.184,20.185 51.5,21C 45.5935,21.7876 40.2602,23.9542 35.5,27.5C 34.913,26.7666 34.913,25.7666 35.5,24.5C 39.4144,21.8599 43.7477,20.1932 48.5,19.5 Z"/></g>
<g><path style="opacity:1" fill="#2d3034" d="M 239.5,21.5 C 243.907,23.211 247.907,25.711 251.5,29C 248.772,29.6389 248.272,30.8056 250,32.5C 251.897,29.9201 253.897,30.2535 256,33.5C 258.455,38.0456 260.288,42.7123 261.5,47.5C 261.667,142.501 261.5,237.501 261,332.5C 260.627,336.285 259.461,339.785 257.5,343C 258.332,343.688 258.998,343.521 259.5,342.5C 260.112,339.567 261.445,337.234 263.5,335.5C 261.861,343.785 257.528,350.118 250.5,354.5C 251.087,353.233 251.087,352.233 250.5,351.5C 245.987,354.756 240.987,356.922 235.5,358C 173.5,358.333 111.5,358.667 49.5,359C 111.668,359.167 173.668,359.667 235.5,360.5C 175.518,361.647 115.518,361.814 55.5,361C 37.9877,360.139 27.1544,351.306 23,334.5C 22.3333,238.167 22.3333,141.833 23,45.5C 24.1084,36.6071 28.2751,29.6071 35.5,24.5C 34.913,25.7666 34.913,26.7666 35.5,27.5C 40.2602,23.9542 45.5935,21.7876 51.5,21C 114.184,20.185 176.851,20.3517 239.5,21.5 Z M 141.5,46.5 C 144.187,46.3359 146.854,46.5026 149.5,47C 151.546,52.2658 154.213,57.0991 157.5,61.5C 183.502,61.3334 209.502,61.5 235.5,62C 237.193,62.8466 238.86,63.6799 240.5,64.5C 241.828,143.542 241.828,222.542 240.5,301.5C 239.413,305.573 236.746,307.239 232.5,306.5C 170.833,306.5 109.167,306.5 47.5,306.5C 46.1639,304.99 44.9973,303.323 44,301.5C 43.5,224.167 43.3333,146.834 43.5,69.5C 43.4326,68.0413 43.7659,66.7079 44.5,65.5C 45.343,63.8267 46.6763,62.66 48.5,62C 75.8313,61.5 103.165,61.3334 130.5,61.5C 133.868,57.4306 136.201,52.7639 137.5,47.5C 139.001,48.4427 140.335,48.1094 141.5,46.5 Z M 156.5,330.5 C 155.494,331.396 155.494,332.062 156.5,332.5C 156.33,333.822 156.663,334.989 157.5,336C 149.841,336.5 142.174,336.666 134.5,336.5C 134.768,334.901 134.434,333.568 133.5,332.5C 140.76,330.535 148.427,329.868 156.5,330.5 Z"/></g>
<g><path style="opacity:0.888" fill="#000000" d="M 25.5,39.5 C 26.0967,39.7352 26.4301,40.2352 26.5,41C 25.8729,43.1351 25.3729,45.3018 25,47.5C 24.3476,144.194 24.3476,240.861 25,337.5C 23.8425,288.378 23.3425,239.211 23.5,190C 23.6667,142.167 23.8333,94.3333 24,46.5C 24.4396,44.1341 24.9396,41.8008 25.5,39.5 Z"/></g>
<g><path style="opacity:0.005" fill="#fefffe" d="M 137.5,47.5 C 138.568,46.5655 139.901,46.2322 141.5,46.5C 140.335,48.1094 139.001,48.4427 137.5,47.5 Z"/></g>
<g><path style="opacity:0.913" fill="#000000" d="M 261.5,47.5 C 262.167,142.833 262.833,238.167 263.5,333.5C 263.5,334.167 263.5,334.833 263.5,335.5C 261.445,337.234 260.112,339.567 259.5,342.5C 258.998,343.521 258.332,343.688 257.5,343C 259.461,339.785 260.627,336.285 261,332.5C 261.5,237.501 261.667,142.501 261.5,47.5 Z"/></g>
<g><path style="opacity:0.109" fill="#131414" d="M 130.5,61.5 C 103.165,61.3334 75.8313,61.5 48.5,62C 46.6763,62.66 45.343,63.8267 44.5,65.5C 43.2502,65.5774 42.4169,66.244 42,67.5C 42.1495,63.984 43.9828,61.484 47.5,60C 61.3333,59.8333 75.1667,59.6667 89,59.5C 103.183,59.5007 117.017,60.1674 130.5,61.5 Z"/></g>
<g><path style="opacity:0.958" fill="#151517" d="M 338.5,143.5 C 338.119,142.069 337.119,141.236 335.5,141C 353.83,140.5 372.164,140.333 390.5,140.5C 390.5,133.833 390.5,127.167 390.5,120.5C 364.167,120.5 337.833,120.5 311.5,120.5C 311.5,161.167 311.5,201.833 311.5,242.5C 319.167,242.5 326.833,242.5 334.5,242.5C 334.333,226.83 334.5,211.163 335,195.5C 349.088,194.51 363.255,194.176 377.5,194.5C 378.014,188.178 378.347,181.845 378.5,175.5C 364.163,175.667 349.829,175.5 335.5,175C 334.347,164.243 334.18,153.41 335,142.5C 335.951,142.884 336.784,143.217 337.5,143.5C 337.5,153.167 337.5,162.833 337.5,172.5C 351.833,172.5 366.167,172.5 380.5,172.5C 380.5,180.5 380.5,188.5 380.5,196.5C 366.167,196.5 351.833,196.5 337.5,196.5C 337.5,212.5 337.5,228.5 337.5,244.5C 327.917,244.818 318.417,244.485 309,243.5C 309.641,201.994 309.641,160.661 309,119.5C 336.761,118.339 364.595,118.172 392.5,119C 392.971,126.8 392.971,134.966 392.5,143.5C 374.5,143.5 356.5,143.5 338.5,143.5 Z"/></g>
<g><path style="opacity:1" fill="#2d2f33" d="M 338.5,143.5 C 338.167,143.5 337.833,143.5 337.5,143.5C 336.784,143.217 335.951,142.884 335,142.5C 334.18,153.41 334.347,164.243 335.5,175C 349.829,175.5 364.163,175.667 378.5,175.5C 378.347,181.845 378.014,188.178 377.5,194.5C 363.255,194.176 349.088,194.51 335,195.5C 334.5,211.163 334.333,226.83 334.5,242.5C 326.833,242.5 319.167,242.5 311.5,242.5C 311.5,201.833 311.5,161.167 311.5,120.5C 337.833,120.5 364.167,120.5 390.5,120.5C 390.5,127.167 390.5,133.833 390.5,140.5C 372.164,140.333 353.83,140.5 335.5,141C 337.119,141.236 338.119,142.069 338.5,143.5 Z"/></g>
<g><path style="opacity:1" fill="#2c2e31" d="M 758.5,121.5 C 769.557,126.026 778.224,133.359 784.5,143.5C 782.807,142.525 781.307,141.192 780,139.5C 783.469,146.465 786.469,153.798 789,161.5C 791.284,176.579 790.951,191.579 788,206.5C 786.429,212.141 783.929,217.307 780.5,222C 781.448,222.483 782.448,222.649 783.5,222.5C 778.429,230.236 771.762,236.236 763.5,240.5C 763.574,238.589 764.574,237.422 766.5,237C 766,236.833 765.5,236.667 765,236.5C 750.532,243.098 735.365,245.265 719.5,243C 713.335,242.167 707.501,240.334 702,237.5C 701.53,238.577 701.697,239.577 702.5,240.5C 687.25,233.714 677.916,222.047 674.5,205.5C 675.222,205.918 675.722,206.584 676,207.5C 675.563,201.526 674.896,195.526 674,189.5C 672.939,175.925 674.773,162.758 679.5,150C 679.333,149.5 679.167,149 679,148.5C 678.583,149.756 677.75,150.423 676.5,150.5C 677.596,147.968 678.929,145.635 680.5,143.5C 680.351,144.552 680.517,145.552 681,146.5C 692.653,128.251 709.487,119.251 731.5,119.5C 740.012,119.772 748.345,121.105 756.5,123.5C 757.713,123.253 758.38,122.586 758.5,121.5 Z M 762.5,200.5 C 761.463,201.93 760.796,203.597 760.5,205.5C 754.77,216.714 745.437,222.381 732.5,222.5C 726.916,222.051 721.583,220.718 716.5,218.5C 715.101,217.11 713.434,216.11 711.5,215.5C 705.288,208.397 701.788,200.064 701,190.5C 698.964,177.045 701.131,164.378 707.5,152.5C 710.312,149.599 713.312,146.932 716.5,144.5C 731.107,139.18 744.274,141.513 756,151.5C 760.231,157.522 762.897,164.189 764,171.5C 764.812,181.244 764.312,190.911 762.5,200.5 Z"/></g>
<g><path style="opacity:0.769" fill="#151516" d="M 758.5,121.5 C 758.38,122.586 757.713,123.253 756.5,123.5C 748.345,121.105 740.012,119.772 731.5,119.5C 709.487,119.251 692.653,128.251 681,146.5C 680.517,145.552 680.351,144.552 680.5,143.5C 687.756,131.761 698.089,123.927 711.5,120C 727.319,116.347 742.986,116.847 758.5,121.5 Z"/></g>
<g><path style="opacity:0.863" fill="#1d1d1f" d="M 762.5,200.5 C 764.312,190.911 764.812,181.244 764,171.5C 762.897,164.189 760.231,157.522 756,151.5C 744.274,141.513 731.107,139.18 716.5,144.5C 714.863,145.218 713.197,145.384 711.5,145C 726.155,137.265 740.489,137.765 754.5,146.5C 755.736,145.754 757.07,145.421 758.5,145.5C 759.052,147.331 759.052,148.997 758.5,150.5C 761.872,156.112 764.372,162.112 766,168.5C 767.124,179.966 766.457,191.3 764,202.5C 763.667,202.833 763.333,203.167 763,203.5C 762.517,202.552 762.351,201.552 762.5,200.5 Z"/></g>
<g><path style="opacity:0.837" fill="#19191a" d="M 556.5,155.5 C 556.631,156.376 556.298,157.043 555.5,157.5C 540.334,150.679 526.501,152.679 514,163.5C 513.805,162.181 513.972,160.847 514.5,159.5C 527.756,149.795 541.756,148.461 556.5,155.5 Z"/></g>
<g><path style="opacity:0.307" fill="#171718" d="M 875.5,217.5 C 875.343,216.127 875.51,214.793 876,213.5C 879.042,222.957 881.875,232.457 884.5,242C 892.493,242.5 900.493,242.666 908.5,242.5C 916.628,213.485 925.294,184.652 934.5,156C 926.507,155.5 918.507,155.334 910.5,155.5C 906.231,175.358 901.397,195.024 896,214.5C 895.51,213.207 895.343,211.873 895.5,210.5C 899.451,191.414 903.784,172.414 908.5,153.5C 917.418,153.817 926.251,153.484 935,152.5C 935.833,153.333 936.667,154.167 937.5,155C 928.213,184.366 919.213,213.866 910.5,243.5C 900.856,244.498 891.19,244.832 881.5,244.5C 879.5,235.5 877.5,226.5 875.5,217.5 Z"/></g>
<g><path style="opacity:1" fill="#2b2d30" d="M 451.5,154.5 C 454.241,154.707 456.574,155.707 458.5,157.5C 458.082,158.222 457.416,158.722 456.5,159C 467.309,165.488 473.809,174.988 476,187.5C 477.54,199.521 476.207,211.188 472,222.5C 470.623,224.754 469.123,226.92 467.5,229C 468.448,229.483 469.448,229.649 470.5,229.5C 462.963,239.341 452.963,245.008 440.5,246.5C 440.389,245.883 440.056,245.383 439.5,245C 441.167,244.667 442.833,244.333 444.5,244C 445.696,243.346 445.696,242.846 444.5,242.5C 430.231,245.312 416.897,242.979 404.5,235.5C 403.893,235.624 403.56,235.957 403.5,236.5C 397.138,232.511 392.638,226.844 390,219.5C 386.232,207.684 385.566,195.684 388,183.5C 389.143,178.547 391.31,174.214 394.5,170.5C 395.117,170.611 395.617,170.944 396,171.5C 401.128,163.518 408.295,158.351 417.5,156C 429.839,152.423 442.005,152.923 454,157.5C 454.5,157.333 455,157.167 455.5,157C 453.934,156.392 452.6,155.558 451.5,154.5 Z M 427.5,175.5 C 430.918,175.704 434.584,175.704 438.5,175.5C 443.36,176.857 446.86,179.857 449,184.5C 451.656,192.702 452.156,201.035 450.5,209.5C 445.559,222.109 436.559,225.943 423.5,221C 417.191,215.085 414.191,207.752 414.5,199C 414.744,195.814 415.077,192.647 415.5,189.5C 416.721,182.358 420.721,177.691 427.5,175.5 Z"/></g>
<g><path style="opacity:0.954" fill="#161618" d="M 894.5,210.5 C 894.657,211.873 894.49,213.207 894,214.5C 887.803,195.07 882.303,175.404 877.5,155.5C 870.492,155.334 863.492,155.5 856.5,156C 853.771,164.08 851.271,172.247 849,180.5C 848.825,177.843 848.992,175.176 849.5,172.5C 850.191,167.402 851.358,162.402 853,157.5C 853.26,155.382 854.26,153.716 856,152.5C 863.535,153.405 871.035,153.738 878.5,153.5C 884.303,172.381 889.637,191.381 894.5,210.5 Z"/></g>
<g><path style="opacity:0.815" fill="#121214" d="M 1015.5,158.5 C 1010.73,156.525 1005.73,155.025 1000.5,154C 988.952,152.103 978.952,155.103 970.5,163C 969.207,163.49 967.873,163.657 966.5,163.5C 966.5,160.833 966.5,158.167 966.5,155.5C 959.5,155.5 952.5,155.5 945.5,155.5C 945.5,184.5 945.5,213.5 945.5,242.5C 952.833,242.5 960.167,242.5 967.5,242.5C 967.333,224.83 967.5,207.164 968,189.5C 968.346,187.782 968.846,186.115 969.5,184.5C 970.257,183.227 970.923,183.227 971.5,184.5C 970.561,204.477 970.228,224.477 970.5,244.5C 961.167,244.5 951.833,244.5 942.5,244.5C 942.333,214.165 942.5,183.832 943,153.5C 950.738,153.767 958.572,153.434 966.5,152.5C 967.979,154.678 969.312,157.012 970.5,159.5C 984.552,149.253 999.219,148.253 1014.5,156.5C 1015.3,156.957 1015.63,157.624 1015.5,158.5 Z"/></g>
<g><path style="opacity:1" fill="#2d2e32" d="M 1063.5,153.5 C 1062.94,154.79 1061.94,155.623 1060.5,156C 1061,156.167 1061.5,156.333 1062,156.5C 1079.87,150.61 1095.54,153.61 1109,165.5C 1109.46,164.906 1109.63,164.239 1109.5,163.5C 1111.17,164.5 1112.5,165.833 1113.5,167.5C 1112.23,166.913 1111.23,166.913 1110.5,167.5C 1117.96,178.48 1120.3,190.48 1117.5,203.5C 1098.84,204.333 1080.18,204.833 1061.5,205C 1060.83,209.812 1062,214.312 1065,218.5C 1066.01,219.337 1067.18,219.67 1068.5,219.5C 1070.8,220.475 1072.8,221.808 1074.5,223.5C 1073.45,223.351 1072.45,223.517 1071.5,224C 1075.75,226.69 1080.41,227.857 1085.5,227.5C 1094.33,226.601 1102.99,224.934 1111.5,222.5C 1112.56,227.781 1113.22,233.114 1113.5,238.5C 1108.23,240.032 1102.9,241.365 1097.5,242.5C 1096.23,242.43 1095.06,242.097 1094,241.5C 1081.13,244.983 1068.63,243.649 1056.5,237.5C 1055.54,237.97 1055.54,238.637 1056.5,239.5C 1054.85,239.34 1053.51,238.674 1052.5,237.5C 1052.41,236.504 1052.75,235.671 1053.5,235C 1041.77,225.34 1036.77,212.84 1038.5,197.5C 1037.11,181.132 1043.11,168.298 1056.5,159C 1055.18,158.805 1053.85,158.972 1052.5,159.5C 1055.68,156.742 1059.34,154.742 1063.5,153.5 Z M 1089.5,175.5 C 1092.01,178.698 1093.34,182.364 1093.5,186.5C 1083.5,186.5 1073.5,186.5 1063.5,186.5C 1063.63,184.784 1063.96,183.117 1064.5,181.5C 1070.93,172.144 1079.26,170.144 1089.5,175.5 Z"/></g>
<g><path style="opacity:0.828" fill="#1c1c1d" d="M 1109.5,163.5 C 1109.63,164.239 1109.46,164.906 1109,165.5C 1095.54,153.61 1079.87,150.61 1062,156.5C 1061.5,156.333 1061,156.167 1060.5,156C 1061.94,155.623 1062.94,154.79 1063.5,153.5C 1076.92,149.342 1089.92,150.509 1102.5,157C 1105.29,158.719 1107.62,160.885 1109.5,163.5 Z"/></g>
<g><path style="opacity:1" fill="#2d2f32" d="M 643.5,155.5 C 648.413,158.118 652.746,161.452 656.5,165.5C 655.233,164.913 654.233,164.913 653.5,165.5C 662.119,177.117 665.119,190.117 662.5,204.5C 643.83,204.333 625.164,204.5 606.5,205C 605.444,212.478 607.944,218.644 614,223.5C 614.483,222.552 614.649,221.552 614.5,220.5C 618.241,222.964 622.241,224.631 626.5,225.5C 624.473,225.338 622.473,225.505 620.5,226C 632.015,228.586 643.182,227.42 654,222.5C 654.772,222.645 655.439,222.978 656,223.5C 656.301,226.98 657.135,230.313 658.5,233.5C 659.298,233.043 659.631,232.376 659.5,231.5C 660.693,233.97 661.193,236.636 661,239.5C 656.411,241.863 651.577,243.53 646.5,244.5C 646.719,243.325 646.386,242.325 645.5,241.5C 628.787,245.785 612.954,243.785 598,235.5C 596.316,235.683 596.15,236.35 597.5,237.5C 593.564,235.234 590.231,232.234 587.5,228.5C 588.497,228.53 589.164,228.03 589.5,227C 580.905,211.246 579.572,194.912 585.5,178C 584.517,177.409 583.85,177.743 583.5,179C 582.564,181.98 581.564,184.814 580.5,187.5C 580.654,182.711 581.987,178.378 584.5,174.5C 584.369,175.376 584.702,176.043 585.5,176.5C 593.275,161.353 605.775,153.686 623,153.5C 629.575,153.762 635.908,155.095 642,157.5C 643.03,157.164 643.53,156.497 643.5,155.5 Z M 638.5,183.5 C 638.5,184.5 638.5,185.5 638.5,186.5C 628.161,186.666 617.828,186.5 607.5,186C 611.691,174.571 619.691,170.571 631.5,174C 634.953,176.432 637.286,179.599 638.5,183.5 Z"/></g>
<g><path style="opacity:1" fill="#2c2e31" d="M 1015.5,158.5 C 1017.03,158.427 1018.03,159.094 1018.5,160.5C 1017.23,159.913 1016.23,159.913 1015.5,160.5C 1021.68,166.854 1024.84,174.521 1025,183.5C 1025.5,203.164 1025.67,222.831 1025.5,242.5C 1017.83,242.5 1010.17,242.5 1002.5,242.5C 1002.67,223.164 1002.5,203.83 1002,184.5C 1001.64,182.392 1000.97,180.392 1000,178.5C 999.517,179.448 999.351,180.448 999.5,181.5C 997.151,176.649 993.151,174.316 987.5,174.5C 980.189,174.815 974.856,178.148 971.5,184.5C 970.923,183.227 970.257,183.227 969.5,184.5C 968.846,186.115 968.346,187.782 968,189.5C 967.5,207.164 967.333,224.83 967.5,242.5C 960.167,242.5 952.833,242.5 945.5,242.5C 945.5,213.5 945.5,184.5 945.5,155.5C 952.5,155.5 959.5,155.5 966.5,155.5C 966.5,158.167 966.5,160.833 966.5,163.5C 967.873,163.657 969.207,163.49 970.5,163C 978.952,155.103 988.952,152.103 1000.5,154C 1005.73,155.025 1010.73,156.525 1015.5,158.5 Z"/></g>
<g><path style="opacity:0.125" fill="#1e1e1f" d="M 239.5,20.5 C 240.167,20.5 240.833,20.5 241.5,20.5C 253.366,24.2035 260.533,32.2035 263,44.5C 263.5,140.833 263.667,237.166 263.5,333.5C 262.833,238.167 262.167,142.833 261.5,47.5C 260.288,42.7123 258.455,38.0456 256,33.5C 253.897,30.2535 251.897,29.9201 250,32.5C 248.272,30.8056 248.772,29.6389 251.5,29C 247.907,25.711 243.907,23.211 239.5,21.5C 239.5,21.1667 239.5,20.8333 239.5,20.5 Z"/></g>
<g><path style="opacity:0.81" fill="#1b1b1c" d="M 451.5,154.5 C 452.6,155.558 453.934,156.392 455.5,157C 455,157.167 454.5,157.333 454,157.5C 442.005,152.923 429.839,152.423 417.5,156C 408.295,158.351 401.128,163.518 396,171.5C 395.617,170.944 395.117,170.611 394.5,170.5C 400.119,161.513 408.119,155.679 418.5,153C 429.752,149.93 440.752,150.43 451.5,154.5 Z"/></g>
<g><path style="opacity:1" fill="#2d2e32" d="M 556.5,155.5 C 563.83,159.836 568.497,166.169 570.5,174.5C 569.228,173.333 567.894,172.499 566.5,172C 567.976,175.312 568.81,178.812 569,182.5C 569.5,202.497 569.667,222.497 569.5,242.5C 562.167,242.5 554.833,242.5 547.5,242.5C 547.94,222.121 547.44,201.788 546,181.5C 543.559,175.061 538.893,171.727 532,171.5C 522.857,171.893 516.523,176.226 513,184.5C 511.564,203.787 511.064,223.12 511.5,242.5C 504.167,242.5 496.833,242.5 489.5,242.5C 489.792,213.479 489.459,184.479 488.5,155.5C 495.833,155.5 503.167,155.5 510.5,155.5C 510.248,158.32 510.748,160.986 512,163.5C 512.494,161.866 512.66,160.199 512.5,158.5C 513.167,158.833 513.833,159.167 514.5,159.5C 513.972,160.847 513.805,162.181 514,163.5C 526.501,152.679 540.334,150.679 555.5,157.5C 556.298,157.043 556.631,156.376 556.5,155.5 Z"/></g>
<g><path style="opacity:1" fill="#2d2e32" d="M 843.5,192.5 C 844.928,185.559 846.928,178.892 849.5,172.5C 848.992,175.176 848.825,177.843 849,180.5C 851.271,172.247 853.771,164.08 856.5,156C 863.492,155.5 870.492,155.334 877.5,155.5C 882.303,175.404 887.803,195.07 894,214.5C 894.49,213.207 894.657,211.873 894.5,210.5C 894.833,210.5 895.167,210.5 895.5,210.5C 895.343,211.873 895.51,213.207 896,214.5C 901.397,195.024 906.231,175.358 910.5,155.5C 918.507,155.334 926.507,155.5 934.5,156C 925.294,184.652 916.628,213.485 908.5,242.5C 900.493,242.666 892.493,242.5 884.5,242C 881.875,232.457 879.042,222.957 876,213.5C 875.51,214.793 875.343,216.127 875.5,217.5C 873.409,212.809 872.076,207.809 871.5,202.5C 872.956,205.614 874.122,208.948 875,212.5C 874.095,202.543 871.761,192.877 868,183.5C 867.825,186.157 867.992,188.824 868.5,191.5C 867.5,190.167 866.5,190.167 865.5,191.5C 866.008,188.824 866.175,186.157 866,183.5C 860.135,202.763 854.468,222.097 849,241.5C 840.919,242.482 832.752,242.816 824.5,242.5C 818.827,222.146 812.994,201.813 807,181.5C 806.505,183.473 806.338,185.473 806.5,187.5C 804.899,184.45 803.899,181.116 803.5,177.5C 804.222,177.918 804.722,178.584 805,179.5C 803.915,171.726 802.082,164.059 799.5,156.5C 807.479,155.335 815.479,155.168 823.5,156C 828.266,175.23 833.266,194.396 838.5,213.5C 838.911,212.738 839.077,211.738 839,210.5C 839.667,211.833 840.333,211.833 841,210.5C 843.476,202.937 845.143,195.271 846,187.5C 845.901,189.653 845.067,191.319 843.5,192.5 Z"/></g>
<g><path style="opacity:0.822" fill="#151516" d="M 643.5,155.5 C 643.53,156.497 643.03,157.164 642,157.5C 635.908,155.095 629.575,153.762 623,153.5C 605.775,153.686 593.275,161.353 585.5,176.5C 584.702,176.043 584.369,175.376 584.5,174.5C 589.567,163.603 597.901,156.437 609.5,153C 621.15,150.428 632.484,151.261 643.5,155.5 Z"/></g>
<g><path style="opacity:0.826" fill="#181818" d="M 674.5,205.5 C 672.115,197.817 671.115,189.817 671.5,181.5C 671.115,170.813 672.781,160.48 676.5,150.5C 677.75,150.423 678.583,149.756 679,148.5C 679.167,149 679.333,149.5 679.5,150C 674.773,162.758 672.939,175.925 674,189.5C 674.896,195.526 675.563,201.526 676,207.5C 675.722,206.584 675.222,205.918 674.5,205.5 Z"/></g>
<g><path style="opacity:0.007" fill="#fefffe" d="M 438.5,175.5 C 434.584,175.704 430.918,175.704 427.5,175.5C 431.167,174.167 434.833,174.167 438.5,175.5 Z"/></g>
<g><path style="opacity:0.891" fill="#171718" d="M 512.5,158.5 C 512.66,160.199 512.494,161.866 512,163.5C 510.748,160.986 510.248,158.32 510.5,155.5C 503.167,155.5 495.833,155.5 488.5,155.5C 489.459,184.479 489.792,213.479 489.5,242.5C 496.833,242.5 504.167,242.5 511.5,242.5C 511.064,223.12 511.564,203.787 513,184.5C 516.523,176.226 522.857,171.893 532,171.5C 538.893,171.727 543.559,175.061 546,181.5C 547.44,201.788 547.94,222.121 547.5,242.5C 554.833,242.5 562.167,242.5 569.5,242.5C 569.667,222.497 569.5,202.497 569,182.5C 568.81,178.812 567.976,175.312 566.5,172C 567.894,172.499 569.228,173.333 570.5,174.5C 571.167,186.49 571.833,198.49 572.5,210.5C 572.231,221.476 572.064,232.476 572,243.5C 562.917,244.485 553.751,244.818 544.5,244.5C 544.667,224.164 544.5,203.831 544,183.5C 542.793,179.037 539.96,176.37 535.5,175.5C 532.5,174.167 529.5,174.167 526.5,175.5C 519.653,177.179 515.82,181.513 515,188.5C 514.5,207.164 514.333,225.83 514.5,244.5C 505.167,244.5 495.833,244.5 486.5,244.5C 486.333,214.165 486.5,183.832 487,153.5C 494.738,153.767 502.572,153.434 510.5,152.5C 512.283,154.023 512.949,156.023 512.5,158.5 Z"/></g>
<g><path style="opacity:0.005" fill="#fefffe" d="M 526.5,175.5 C 529.5,174.167 532.5,174.167 535.5,175.5C 532.81,175.661 529.81,175.661 526.5,175.5 Z"/></g>
<g><path style="opacity:0.756" fill="#161617" d="M 458.5,157.5 C 468.95,163.478 475.45,172.478 478,184.5C 481.533,200.637 479.033,215.637 470.5,229.5C 469.448,229.649 468.448,229.483 467.5,229C 469.123,226.92 470.623,224.754 472,222.5C 476.207,211.188 477.54,199.521 476,187.5C 473.809,174.988 467.309,165.488 456.5,159C 457.416,158.722 458.082,158.222 458.5,157.5 Z"/></g>
<g><path style="opacity:0.915" fill="#151516" d="M 1018.5,160.5 C 1023.18,165.524 1026.01,171.524 1027,178.5C 1027.54,200.354 1027.87,222.02 1028,243.5C 1018.92,244.485 1009.75,244.818 1000.5,244.5C 1000.75,223.482 1000.42,202.482 999.5,181.5C 999.351,180.448 999.517,179.448 1000,178.5C 1000.97,180.392 1001.64,182.392 1002,184.5C 1002.5,203.83 1002.67,223.164 1002.5,242.5C 1010.17,242.5 1017.83,242.5 1025.5,242.5C 1025.67,222.831 1025.5,203.164 1025,183.5C 1024.84,174.521 1021.68,166.854 1015.5,160.5C 1016.23,159.913 1017.23,159.913 1018.5,160.5 Z"/></g>
<g><path style="opacity:0.71" fill="#131415" d="M 707.5,152.5 C 701.131,164.378 698.964,177.045 701,190.5C 701.788,200.064 705.288,208.397 711.5,215.5C 708.737,215.256 706.571,213.923 705,211.5C 696.859,194.721 695.526,177.387 701,159.5C 702.413,156.339 704.08,153.339 706,150.5C 706.278,151.416 706.778,152.082 707.5,152.5 Z"/></g>
<g><path style="opacity:1" fill="#07080b" d="M 638.5,186.5 C 638.5,185.5 638.5,184.5 638.5,183.5C 638.343,182.127 638.51,180.793 639,179.5C 641.031,182.54 641.531,185.707 640.5,189C 629.167,189.667 617.833,189.667 606.5,189C 617.183,187.856 627.85,187.023 638.5,186.5 Z"/></g>
<g><path style="opacity:1" fill="#0c0c0f" d="M 1064.5,181.5 C 1063.96,183.117 1063.63,184.784 1063.5,186.5C 1073.5,186.5 1083.5,186.5 1093.5,186.5C 1093.34,182.364 1092.01,178.698 1089.5,175.5C 1089.9,174.475 1090.56,174.308 1091.5,175C 1095.31,179.075 1096.64,183.742 1095.5,189C 1084.17,189.667 1072.83,189.667 1061.5,189C 1060.44,185.157 1061.27,181.657 1064,178.5C 1064.48,179.448 1064.65,180.448 1064.5,181.5 Z"/></g>
<g><path style="opacity:0.823" fill="#141415" d="M 784.5,143.5 C 794.294,164.747 796.127,186.747 790,209.5C 788.67,214.368 786.504,218.701 783.5,222.5C 782.448,222.649 781.448,222.483 780.5,222C 783.929,217.307 786.429,212.141 788,206.5C 790.951,191.579 791.284,176.579 789,161.5C 786.469,153.798 783.469,146.465 780,139.5C 781.307,141.192 782.807,142.525 784.5,143.5 Z"/></g>
<g><path style="opacity:0.858" fill="#121212" d="M 871.5,202.5 C 870.055,199.063 869.055,195.397 868.5,191.5C 867.992,188.824 867.825,186.157 868,183.5C 871.761,192.877 874.095,202.543 875,212.5C 874.122,208.948 872.956,205.614 871.5,202.5 Z"/></g>
<g><path style="opacity:0.979" fill="#242526" d="M 656.5,165.5 C 662.657,172.968 665.657,181.635 665.5,191.5C 665.11,196.511 664.61,201.511 664,206.5C 646.235,207.172 628.402,207.338 610.5,207C 608.637,208.418 608.137,210.251 609,212.5C 610.116,215.756 611.949,218.422 614.5,220.5C 614.649,221.552 614.483,222.552 614,223.5C 607.944,218.644 605.444,212.478 606.5,205C 625.164,204.5 643.83,204.333 662.5,204.5C 665.119,190.117 662.119,177.117 653.5,165.5C 654.233,164.913 655.233,164.913 656.5,165.5 Z"/></g>
<g><path style="opacity:0.798" fill="#151617" d="M 843.5,192.5 C 845.067,191.319 845.901,189.653 846,187.5C 845.143,195.271 843.476,202.937 841,210.5C 840.333,211.833 839.667,211.833 839,210.5C 839.077,211.738 838.911,212.738 838.5,213.5C 833.266,194.396 828.266,175.23 823.5,156C 815.479,155.168 807.479,155.335 799.5,156.5C 802.082,164.059 803.915,171.726 805,179.5C 804.722,178.584 804.222,177.918 803.5,177.5C 800.405,169.789 798.238,161.789 797,153.5C 805.957,153.739 814.957,153.406 824,152.5C 824.667,153.167 825.333,153.833 826,154.5C 830.333,172.162 834.666,189.828 839,207.5C 840.662,202.511 842.162,197.511 843.5,192.5 Z"/></g>
<g><path style="opacity:0.971" fill="#262728" d="M 1113.5,167.5 C 1120.9,179.606 1122.9,192.606 1119.5,206.5C 1100.89,207.262 1082.39,207.262 1064,206.5C 1063.8,211.398 1065.3,215.732 1068.5,219.5C 1067.18,219.67 1066.01,219.337 1065,218.5C 1062,214.312 1060.83,209.812 1061.5,205C 1080.18,204.833 1098.84,204.333 1117.5,203.5C 1120.3,190.48 1117.96,178.48 1110.5,167.5C 1111.23,166.913 1112.23,166.913 1113.5,167.5 Z"/></g>
<g><path style="opacity:0.827" fill="#191a1b" d="M 1052.5,237.5 C 1040.36,227.279 1034.69,214.113 1035.5,198C 1034.53,182.042 1040.19,169.209 1052.5,159.5C 1053.85,158.972 1055.18,158.805 1056.5,159C 1043.11,168.298 1037.11,181.132 1038.5,197.5C 1036.77,212.84 1041.77,225.34 1053.5,235C 1052.75,235.671 1052.41,236.504 1052.5,237.5 Z"/></g>
<g><path style="opacity:0.882" fill="#1d1d1e" d="M 1155.5,161.5 C 1155.01,162.473 1154.51,163.473 1154,164.5C 1152.71,161.649 1152.21,158.649 1152.5,155.5C 1145.83,155.5 1139.17,155.5 1132.5,155.5C 1132.5,184.5 1132.5,213.5 1132.5,242.5C 1139.83,242.5 1147.17,242.5 1154.5,242.5C 1154.33,228.163 1154.5,213.829 1155,199.5C 1155.44,180.025 1165.27,172.025 1184.5,175.5C 1184.5,168.5 1184.5,161.5 1184.5,154.5C 1178.19,154.057 1172.02,154.724 1166,156.5C 1165.5,156.333 1165,156.167 1164.5,156C 1165.76,155.583 1166.42,154.75 1166.5,153.5C 1173.38,150.976 1180.21,150.976 1187,153.5C 1187.39,161.84 1187.22,170.173 1186.5,178.5C 1180.12,177.141 1173.78,177.308 1167.5,179C 1161.37,183.086 1158.2,188.92 1158,196.5C 1157.5,212.497 1157.33,228.497 1157.5,244.5C 1148.17,244.5 1138.83,244.5 1129.5,244.5C 1129.33,214.165 1129.5,183.832 1130,153.5C 1137.6,153.755 1145.27,153.422 1153,152.5C 1154.6,155.247 1155.44,158.247 1155.5,161.5 Z"/></g>
<g><path style="opacity:1" fill="#2d2e32" d="M 1166.5,153.5 C 1166.42,154.75 1165.76,155.583 1164.5,156C 1165,156.167 1165.5,156.333 1166,156.5C 1172.02,154.724 1178.19,154.057 1184.5,154.5C 1184.5,161.5 1184.5,168.5 1184.5,175.5C 1165.27,172.025 1155.44,180.025 1155,199.5C 1154.5,213.829 1154.33,228.163 1154.5,242.5C 1147.17,242.5 1139.83,242.5 1132.5,242.5C 1132.5,213.5 1132.5,184.5 1132.5,155.5C 1139.17,155.5 1145.83,155.5 1152.5,155.5C 1152.21,158.649 1152.71,161.649 1154,164.5C 1154.51,163.473 1155.01,162.473 1155.5,161.5C 1158.54,158.149 1162.21,155.482 1166.5,153.5 Z"/></g>
<g><path style="opacity:0.878" fill="#131315" d="M 587.5,228.5 C 579.789,215.683 577.455,202.017 580.5,187.5C 581.564,184.814 582.564,181.98 583.5,179C 583.85,177.743 584.517,177.409 585.5,178C 579.572,194.912 580.905,211.246 589.5,227C 589.164,228.03 588.497,228.53 587.5,228.5 Z"/></g>
<g><path style="opacity:0.141" fill="#242529" d="M 240.5,64.5 C 241.222,64.9175 241.722,65.5842 242,66.5C 242.167,105.667 242.333,144.833 242.5,184C 242.5,223.506 241.833,262.672 240.5,301.5C 241.828,222.542 241.828,143.542 240.5,64.5 Z"/></g>
<g><path style="opacity:0.823" fill="#1f1f20" d="M 659.5,231.5 C 659.631,232.376 659.298,233.043 658.5,233.5C 657.135,230.313 656.301,226.98 656,223.5C 655.439,222.978 654.772,222.645 654,222.5C 643.182,227.42 632.015,228.586 620.5,226C 622.473,225.505 624.473,225.338 626.5,225.5C 636.513,225.247 646.18,223.247 655.5,219.5C 656.442,219.608 657.275,219.941 658,220.5C 658.936,224.114 659.436,227.78 659.5,231.5 Z"/></g>
<g><path style="opacity:0.773" fill="#151516" d="M 415.5,189.5 C 415.077,192.647 414.744,195.814 414.5,199C 414.191,207.752 417.191,215.085 423.5,221C 436.559,225.943 445.559,222.109 450.5,209.5C 452.039,206.135 452.706,202.469 452.5,198.5C 452.412,193.695 451.912,189.028 451,184.5C 452.117,185.949 452.784,187.616 453,189.5C 453.667,195.5 453.667,201.5 453,207.5C 450.28,221.618 441.78,227.451 427.5,225C 419.325,222.511 414.492,217.011 413,208.5C 412.11,201.086 412.443,193.753 414,186.5C 414.232,187.737 414.732,188.737 415.5,189.5 Z"/></g>
<g><path style="opacity:0.835" fill="#131415" d="M 716.5,218.5 C 721.583,220.718 726.916,222.051 732.5,222.5C 745.437,222.381 754.77,216.714 760.5,205.5C 762.353,204.386 762.853,205.052 762,207.5C 753.459,221.512 740.959,227.012 724.5,224C 720.462,223.101 716.795,221.434 713.5,219C 714.769,219.109 715.769,218.942 716.5,218.5 Z"/></g>
<g><path style="opacity:0.904" fill="#141516" d="M 865.5,191.5 C 860.836,209.161 856.169,226.827 851.5,244.5C 841.81,244.832 832.144,244.498 822.5,243.5C 816.551,224.99 811.218,206.323 806.5,187.5C 806.338,185.473 806.505,183.473 807,181.5C 812.994,201.813 818.827,222.146 824.5,242.5C 832.752,242.816 840.919,242.482 849,241.5C 854.468,222.097 860.135,202.763 866,183.5C 866.175,186.157 866.008,188.824 865.5,191.5 Z"/></g>
<g><path style="opacity:0.009" fill="#fefffe" d="M 1113.5,240.5 C 1112.82,242.176 1111.48,242.843 1109.5,242.5C 1110.67,241.655 1112,240.989 1113.5,240.5 Z"/></g>
<g><path style="opacity:0.641" fill="#181819" d="M 646.5,244.5 C 631.102,248.075 616.102,246.908 601.5,241C 599.907,240.051 598.574,238.885 597.5,237.5C 596.15,236.35 596.316,235.683 598,235.5C 612.954,243.785 628.787,245.785 645.5,241.5C 646.386,242.325 646.719,243.325 646.5,244.5 Z"/></g>
<g><path style="opacity:0.583" fill="#181919" d="M 1113.5,240.5 C 1112,240.989 1110.67,241.655 1109.5,242.5C 1094.66,246.966 1079.66,247.466 1064.5,244C 1061.55,242.763 1058.89,241.263 1056.5,239.5C 1055.54,238.637 1055.54,237.97 1056.5,237.5C 1068.63,243.649 1081.13,244.983 1094,241.5C 1095.06,242.097 1096.23,242.43 1097.5,242.5C 1102.9,241.365 1108.23,240.032 1113.5,238.5C 1113.22,233.114 1112.56,227.781 1111.5,222.5C 1102.99,224.934 1094.33,226.601 1085.5,227.5C 1080.41,227.857 1075.75,226.69 1071.5,224C 1072.45,223.517 1073.45,223.351 1074.5,223.5C 1078.2,223.981 1081.87,224.648 1085.5,225.5C 1094.98,224.118 1104.31,222.118 1113.5,219.5C 1114.89,226.443 1115.89,233.443 1116.5,240.5C 1115.5,240.5 1114.5,240.5 1113.5,240.5 Z"/></g>
<g><path style="opacity:0.776" fill="#0f1011" d="M 440.5,246.5 C 429.369,247.307 418.702,245.473 408.5,241C 406.382,239.951 404.716,238.451 403.5,236.5C 403.56,235.957 403.893,235.624 404.5,235.5C 416.897,242.979 430.231,245.312 444.5,242.5C 445.696,242.846 445.696,243.346 444.5,244C 442.833,244.333 441.167,244.667 439.5,245C 440.056,245.383 440.389,245.883 440.5,246.5 Z"/></g>
<g><path style="opacity:0.726" fill="#151517" d="M 763.5,240.5 C 743.049,248.442 722.715,248.442 702.5,240.5C 701.697,239.577 701.53,238.577 702,237.5C 707.501,240.334 713.335,242.167 719.5,243C 735.365,245.265 750.532,243.098 765,236.5C 765.5,236.667 766,236.833 766.5,237C 764.574,237.422 763.574,238.589 763.5,240.5 Z"/></g>
<g><path style="opacity:0.908" fill="#07090d" d="M 43.5,69.5 C 43.3333,146.834 43.5,224.167 44,301.5C 44.9973,303.323 46.1639,304.99 47.5,306.5C 64.1436,307.949 80.9769,308.615 98,308.5C 143.001,308.028 187.834,307.361 232.5,306.5C 236.746,307.239 239.413,305.573 240.5,301.5C 241.833,262.672 242.5,223.506 242.5,184C 242.333,144.833 242.167,105.667 242,66.5C 241.722,65.5842 241.222,64.9175 240.5,64.5C 238.86,63.6799 237.193,62.8466 235.5,62C 209.502,61.5 183.502,61.3334 157.5,61.5C 170.483,60.1674 183.816,59.5008 197.5,59.5C 210.833,59.6667 224.167,59.8333 237.5,60C 240,61.1667 241.833,63 243,65.5C 243.667,144.5 243.667,223.5 243,302.5C 241.413,305.756 238.913,307.923 235.5,309C 173.167,309.667 110.833,309.667 48.5,309C 44.2297,307.73 41.7297,304.896 41,300.5C 40.3333,223.5 40.3333,146.5 41,69.5C 41.7697,68.4019 42.603,68.4019 43.5,69.5 Z"/></g>
<g><path style="opacity:0.176" fill="#6a8dd6" d="M 158.5,280.5 C 156.678,282.01 154.678,283.343 152.5,284.5C 152.082,283.778 151.416,283.278 150.5,283C 152.658,280.067 155.325,279.234 158.5,280.5 Z"/></g>
<g><path style="opacity:0.714" fill="#5e81d4" d="M 193.5,254.5 C 188.396,259.945 182.73,264.612 176.5,268.5C 175.668,267.671 176.001,266.838 177.5,266C 181.073,263.518 183.739,260.851 185.5,258C 188.09,256.555 190.757,255.388 193.5,254.5 Z"/></g>
<g><path style="opacity:0.266" fill="#3f6dcc" d="M 61.5,145.5 C 62.1174,145.611 62.6174,145.944 63,146.5C 63.1434,163.528 63.8101,180.528 65,197.5C 66.6714,203.51 68.0047,209.51 69,215.5C 68.6582,213.381 67.8249,213.047 66.5,214.5C 61.0757,191.804 59.409,168.804 61.5,145.5 Z"/></g>
<g><path style="opacity:0.325" fill="#4d74d9" d="M 222.5,140.5 C 224.348,162.923 223.682,185.256 220.5,207.5C 219.5,207.5 218.5,207.5 217.5,207.5C 220.62,186.943 221.287,166.276 219.5,145.5C 219.507,142.408 220.007,139.408 221,136.5C 221.21,138.058 221.71,139.391 222.5,140.5 Z"/></g>
<g><path style="opacity:1" fill="#267ae4" d="M 222.5,140.5 C 221.71,139.391 221.21,138.058 221,136.5C 220.007,139.408 219.507,142.408 219.5,145.5C 221.287,166.276 220.62,186.943 217.5,207.5C 218.5,207.5 219.5,207.5 220.5,207.5C 215.789,225.632 206.789,241.299 193.5,254.5C 190.757,255.388 188.09,256.555 185.5,258C 183.739,260.851 181.073,263.518 177.5,266C 176.001,266.838 175.668,267.671 176.5,268.5C 171.318,273.674 165.318,277.674 158.5,280.5C 155.325,279.234 152.658,280.067 150.5,283C 151.416,283.278 152.082,283.778 152.5,284.5C 149.307,285.397 146.141,286.397 143,287.5C 107.598,273.599 82.0979,249.266 66.5,214.5C 67.8249,213.047 68.6582,213.381 69,215.5C 68.0047,209.51 66.6714,203.51 65,197.5C 63.8101,180.528 63.1434,163.528 63,146.5C 62.6174,145.944 62.1174,145.611 61.5,145.5C 62.1135,135.603 63.1135,125.769 64.5,116C 90.7869,111.094 116.12,103.094 140.5,92C 142.5,91.3333 144.5,91.3333 146.5,92C 170.055,103.352 194.721,111.185 220.5,115.5C 221.119,123.839 221.786,132.172 222.5,140.5 Z"/></g>
<g><path style="opacity:1" fill="#f9fcfc" d="M 113.5,139.5 C 117.637,139.146 121.637,139.646 125.5,141C 131.67,148.123 134.17,156.29 133,165.5C 130.317,168.016 127.817,170.683 125.5,173.5C 129.398,183.456 135.398,191.956 143.5,199C 145.5,199.667 147.5,199.667 149.5,199C 152.96,196.935 156.626,195.435 160.5,194.5C 168.213,197.367 175.047,201.701 181,207.5C 183.73,213.296 182.563,218.13 177.5,222C 167.873,226.617 158.206,226.617 148.5,222C 122.839,209.353 107.506,189.02 102.5,161C 102.629,151.907 106.295,144.74 113.5,139.5 Z"/></g>
<g><path style="opacity:0.645" fill="#11121a" d="M 47.5,306.5 C 109.167,306.5 170.833,306.5 232.5,306.5C 187.834,307.361 143.001,308.028 98,308.5C 80.9769,308.615 64.1436,307.949 47.5,306.5 Z"/></g>
<g><path style="opacity:0.086" fill="#191a1d" d="M 124.5,328.5 C 137.504,328.333 150.504,328.5 163.5,329C 167.842,333.311 167.176,336.644 161.5,339C 149.5,339.667 137.5,339.667 125.5,339C 121.945,335.828 121.611,332.328 124.5,328.5 Z M 156.5,330.5 C 155.494,331.396 155.494,332.062 156.5,332.5C 156.33,333.822 156.663,334.989 157.5,336C 149.841,336.5 142.174,336.666 134.5,336.5C 134.768,334.901 134.434,333.568 133.5,332.5C 140.76,330.535 148.427,329.868 156.5,330.5 Z"/></g>
<g><path style="opacity:0.006" fill="#fbfafc" d="M 126.5,330.5 C 127.873,330.343 129.207,330.51 130.5,331C 129.748,331.671 129.414,332.504 129.5,333.5C 130.467,334.806 131.801,335.473 133.5,335.5C 133.5,334.5 133.5,333.5 133.5,332.5C 134.434,333.568 134.768,334.901 134.5,336.5C 132.833,336.5 131.167,336.5 129.5,336.5C 128.833,335.167 128.167,335.167 127.5,336.5C 127.167,336.5 126.833,336.5 126.5,336.5C 126.5,335.833 126.167,335.5 125.5,335.5C 125.5,334.167 125.5,332.833 125.5,331.5C 126.167,331.5 126.5,331.167 126.5,330.5 Z"/></g>
<g><path style="opacity:0.007" fill="#fefffe" d="M 156.5,330.5 C 157.833,331.167 157.833,331.833 156.5,332.5C 155.494,332.062 155.494,331.396 156.5,330.5 Z"/></g>
<g><path style="opacity:0.388" fill="#515153" d="M 250.5,354.5 C 247.987,356.926 244.987,358.592 241.5,359.5C 241.389,358.883 241.056,358.383 240.5,358C 243.758,356.533 247.092,355.367 250.5,354.5 Z"/></g>
<g><path style="opacity:0.999" fill="#040406" d="M 250.5,354.5 C 247.092,355.367 243.758,356.533 240.5,358C 241.056,358.383 241.389,358.883 241.5,359.5C 239.5,359.833 237.5,360.167 235.5,360.5C 173.668,359.667 111.668,359.167 49.5,359C 111.5,358.667 173.5,358.333 235.5,358C 240.987,356.922 245.987,354.756 250.5,351.5C 251.087,352.233 251.087,353.233 250.5,354.5 Z"/></g>
</svg>
