<?xml version="1.0" encoding="UTF-8"?>
<!DOCTYPE svg PUBLIC "-//W3C//DTD SVG 1.1//EN" "http://www.w3.org/Graphics/SVG/1.1/DTD/svg11.dtd">
<svg xmlns="http://www.w3.org/2000/svg" version="1.1" width="1211px" height="376px" style="shape-rendering:geometricPrecision; text-rendering:geometricPrecision; image-rendering:optimizeQuality; fill-rule:evenodd; clip-rule:evenodd" xmlns:xlink="http://www.w3.org/1999/xlink">
<g><path style="opacity:1" fill="#fefefe" d="M -0.5,-0.5 C 403.167,-0.5 806.833,-0.5 1210.5,-0.5C 1210.5,124.833 1210.5,250.167 1210.5,375.5C 806.833,375.5 403.167,375.5 -0.5,375.5C -0.5,250.167 -0.5,124.833 -0.5,-0.5 Z"/></g>
<g><path style="opacity:1" fill="#050606" d="M 51.5,19.5 C 113.501,19.3333 175.501,19.5 237.5,20C 251.804,23.7965 259.804,32.9631 261.5,47.5C 258.461,33.2927 249.794,24.4593 235.5,21C 173.999,20.8329 112.665,20.3329 51.5,19.5 Z"/></g>
<g><path style="opacity:1" fill="#2d2f33" d="M 51.5,19.5 C 112.665,20.3329 173.999,20.8329 235.5,21C 249.794,24.4593 258.461,33.2927 261.5,47.5C 261.667,142.501 261.5,237.501 261,332.5C 260.439,337.687 258.605,342.354 255.5,346.5C 255.624,347.107 255.957,347.44 256.5,347.5C 255.415,349.587 253.749,350.92 251.5,351.5C 248.421,353.02 245.088,353.853 241.5,354C 242.5,354.333 243.5,354.667 244.5,355C 241.637,356.399 238.637,357.399 235.5,358C 173.332,358.167 111.332,358.667 49.5,359.5C 36.8461,357.016 28.5128,349.683 24.5,337.5C 25.4511,336.081 25.7845,334.415 25.5,332.5C 25.3333,236.166 25.5,139.833 26,43.5C 26.9419,40.0073 28.2752,36.674 30,33.5C 32.705,30.9638 35.205,28.2971 37.5,25.5C 41.5126,22.1564 46.1793,20.1564 51.5,19.5 Z"/></g>
<g><path style="opacity:1" fill="#fdfefe" d="M 151.5,46.5 C 152.81,51.2883 154.81,55.7883 157.5,60C 183.498,60.5 209.498,60.6666 235.5,60.5C 235.842,61.3382 236.508,61.6716 237.5,61.5C 239.504,62.6728 241.004,64.3395 242,66.5C 242.5,144.833 242.667,223.166 242.5,301.5C 241.78,304.06 240.113,305.893 237.5,307C 174.834,307.5 112.168,307.667 49.5,307.5C 46.3252,307.16 44.1585,305.493 43,302.5C 42.5,223.501 42.3333,144.501 42.5,65.5C 44.208,63.4565 46.208,61.7899 48.5,60.5C 75.8354,60.6666 103.169,60.5 130.5,60C 131.056,59.6174 131.389,59.1174 131.5,58.5C 133.386,54.3759 135.386,50.2092 137.5,46C 142.252,45.2266 146.919,45.3932 151.5,46.5 Z"/></g>
<g><path style="opacity:1" fill="#020203" d="M 261.5,47.5 C 262.666,143.332 262.832,239.332 262,335.5C 260.957,339.915 259.124,343.915 256.5,347.5C 255.957,347.44 255.624,347.107 255.5,346.5C 258.605,342.354 260.439,337.687 261,332.5C 261.5,237.501 261.667,142.501 261.5,47.5 Z"/></g>
<g><path style="opacity:1" fill="#000000" d="M 131.5,58.5 C 131.389,59.1174 131.056,59.6174 130.5,60C 103.169,60.5 75.8354,60.6666 48.5,60.5C 74.761,59.6629 101.761,59.1629 129.5,59C 130.256,57.6197 130.922,57.453 131.5,58.5 Z"/></g>
<g><path style="opacity:1" fill="#030304" d="M 235.5,60.5 C 209.498,60.6666 183.498,60.5 157.5,60C 154.81,55.7883 152.81,51.2883 151.5,46.5C 153.712,50.0234 156.045,54.1901 158.5,59C 184.906,59.1626 210.572,59.6626 235.5,60.5 Z"/></g>
<g><path style="opacity:1" fill="#010102" d="M 237.5,61.5 C 240.038,61.118 241.871,62.4513 243,65.5C 243.832,144.334 243.666,223.001 242.5,301.5C 242.667,223.166 242.5,144.833 242,66.5C 241.004,64.3395 239.504,62.6728 237.5,61.5 Z"/></g>
<g><path style="opacity:1" fill="#247ae5" d="M 221.5,152.5 C 220.669,164.66 220.169,176.993 220,189.5C 219.692,195.247 218.859,200.914 217.5,206.5C 217.543,207.416 217.876,208.083 218.5,208.5C 210.999,233.841 196.332,254.007 174.5,269C 164.49,275.668 153.99,281.502 143,286.5C 112.962,273.821 89.6283,253.488 73,225.5C 68.5286,216.253 65.3619,206.586 63.5,196.5C 63.7542,174.846 63.7542,153.179 63.5,131.5C 63.7204,126.566 64.387,121.733 65.5,117C 92.4882,111.921 118.488,103.754 143.5,92.5C 167.757,103.919 193.091,111.919 219.5,116.5C 220.641,128.47 221.307,140.47 221.5,152.5 Z"/></g>
<g><path style="opacity:1" fill="#0c0d0d" d="M 336.5,142.5 C 335.67,152.659 335.17,162.992 335,173.5C 334.18,162.59 334.347,151.757 335.5,141C 353.83,140.5 372.164,140.333 390.5,140.5C 390.5,133.833 390.5,127.167 390.5,120.5C 364.167,120.5 337.833,120.5 311.5,120.5C 311.5,161.167 311.5,201.833 311.5,242.5C 319.167,242.5 326.833,242.5 334.5,242.5C 334.17,226.658 334.504,210.991 335.5,195.5C 335.833,195.5 336.167,195.5 336.5,195.5C 336.5,211.5 336.5,227.5 336.5,243.5C 327.833,243.5 319.167,243.5 310.5,243.5C 310.5,202.167 310.5,160.833 310.5,119.5C 337.5,119.5 364.5,119.5 391.5,119.5C 391.5,126.833 391.5,134.167 391.5,141.5C 372.992,141.17 354.659,141.503 336.5,142.5 Z"/></g>
<g><path style="opacity:1" fill="#2a2c30" d="M 739.5,118.5 C 755.349,119.387 768.515,125.72 779,137.5C 779.464,138.094 779.631,138.761 779.5,139.5C 788.02,153.581 791.854,168.914 791,185.5C 791.499,181.514 791.666,177.514 791.5,173.5C 794.233,191.668 790.733,208.668 781,224.5C 777.631,228.037 774.131,231.371 770.5,234.5C 770.44,233.957 770.107,233.624 769.5,233.5C 754.086,242.793 737.419,245.96 719.5,243C 703.347,240.82 690.847,232.987 682,219.5C 681.601,219.728 681.435,220.062 681.5,220.5C 677.947,214.691 675.447,208.358 674,201.5C 669.573,180.001 672.573,159.668 683,140.5C 685.668,136.666 688.835,133.333 692.5,130.5C 692.369,131.239 692.536,131.906 693,132.5C 698.91,127.294 705.743,123.794 713.5,122C 722.244,120.327 730.91,119.16 739.5,118.5 Z"/></g>
<g><path style="opacity:1" fill="#2d2f33" d="M 336.5,142.5 C 336.5,152.833 336.5,163.167 336.5,173.5C 350.5,173.5 364.5,173.5 378.5,173.5C 364.673,174.331 350.673,174.831 336.5,175C 350.496,175.5 364.496,175.667 378.5,175.5C 378.5,179.167 378.5,182.833 378.5,186.5C 377.527,188.948 377.194,191.615 377.5,194.5C 363.323,194.171 349.323,194.504 335.5,195.5C 334.504,210.991 334.17,226.658 334.5,242.5C 326.833,242.5 319.167,242.5 311.5,242.5C 311.5,201.833 311.5,161.167 311.5,120.5C 337.833,120.5 364.167,120.5 390.5,120.5C 390.5,127.167 390.5,133.833 390.5,140.5C 372.164,140.333 353.83,140.5 335.5,141C 334.347,151.757 334.18,162.59 335,173.5C 335.17,162.992 335.67,152.659 336.5,142.5 Z"/></g>
<g><path style="opacity:1" fill="#101011" d="M 739.5,118.5 C 730.91,119.16 722.244,120.327 713.5,122C 705.743,123.794 698.91,127.294 693,132.5C 692.536,131.906 692.369,131.239 692.5,130.5C 706.577,120.73 722.244,116.73 739.5,118.5 Z"/></g>
<g><path style="opacity:1" fill="#fcfdfe" d="M 113.5,139.5 C 117.637,139.146 121.637,139.646 125.5,141C 129.078,145.713 131.912,150.879 134,156.5C 134.667,158.833 134.667,161.167 134,163.5C 131.354,166.98 128.521,170.314 125.5,173.5C 129.919,184.576 136.919,193.576 146.5,200.5C 150.955,197.937 155.622,195.937 160.5,194.5C 168.213,197.367 175.047,201.701 181,207.5C 183.9,213.923 182.4,219.09 176.5,223C 167.05,226.475 157.716,226.142 148.5,222C 122.843,209.356 107.51,189.023 102.5,161C 102.109,151.626 105.775,144.459 113.5,139.5 Z"/></g>
<g><path style="opacity:1" fill="#101112" d="M 754.5,147.5 C 739.772,138.268 725.105,138.268 710.5,147.5C 709.668,146.671 710.001,145.838 711.5,145C 725.167,137.667 738.833,137.667 752.5,145C 753.381,145.708 754.047,146.542 754.5,147.5 Z"/></g>
<g><path style="opacity:1" fill="#fdfdfd" d="M 754.5,147.5 C 764.257,160.532 767.757,175.199 765,191.5C 761.431,216.399 747.265,226.566 722.5,222C 709.539,217.366 702.039,208.2 700,194.5C 698.911,183.043 699.578,171.71 702,160.5C 703.849,155.454 706.682,151.121 710.5,147.5C 725.105,138.268 739.772,138.268 754.5,147.5 Z"/></g>
<g><path style="opacity:1" fill="#111213" d="M 779.5,139.5 C 787.631,149.219 791.631,160.552 791.5,173.5C 791.666,177.514 791.499,181.514 791,185.5C 791.854,168.914 788.02,153.581 779.5,139.5 Z"/></g>
<g><path style="opacity:1" fill="#2b2d30" d="M 460.5,160.5 C 475.435,175.228 480.269,192.895 475,213.5C 473.661,220.513 470.494,226.513 465.5,231.5C 465.624,232.107 465.957,232.44 466.5,232.5C 464.45,234.547 462.117,236.214 459.5,237.5C 444.777,244.284 429.611,245.284 414,240.5C 413.235,240.57 412.735,240.903 412.5,241.5C 398.337,234.15 390.171,222.483 388,206.5C 385.061,188.54 390.228,173.54 403.5,161.5C 403.56,162.043 403.893,162.376 404.5,162.5C 422.714,151.243 441.381,150.577 460.5,160.5 Z"/></g>
<g><path style="opacity:1" fill="#2b2d30" d="M 617.5,152.5 C 628.973,152.571 639.64,155.738 649.5,162C 658,169.145 662.5,178.312 663,189.5C 663.49,188.207 663.657,186.873 663.5,185.5C 664.319,191.997 664.319,198.664 663.5,205.5C 644.5,205.5 625.5,205.5 606.5,205.5C 607.137,214.955 611.803,221.455 620.5,225C 626.833,225.667 633.167,225.667 639.5,225C 645.492,223.39 651.492,221.89 657.5,220.5C 657.5,221.5 657.5,222.5 657.5,223.5C 656.853,224.274 656.52,225.274 656.5,226.5C 657.298,230.489 657.965,234.489 658.5,238.5C 644.847,243.046 630.847,244.546 616.5,243C 603.609,240.479 593.776,233.645 587,222.5C 586.601,222.728 586.435,223.062 586.5,223.5C 580.83,212.241 578.996,200.241 581,187.5C 584.861,167.138 597.028,155.471 617.5,152.5 Z"/></g>
<g><path style="opacity:1" fill="#a2a2a3" d="M 909.5,154.5 C 918.342,153.178 927.342,153.178 936.5,154.5C 936.376,155.107 936.043,155.44 935.5,155.5C 927.016,154.507 918.349,154.174 909.5,154.5 Z"/></g>
<g><path style="opacity:1" fill="#2c2e32" d="M 1025.5,178.5 C 1026.43,179.568 1026.77,180.901 1026.5,182.5C 1025.5,202.326 1025.17,222.326 1025.5,242.5C 1017.83,242.5 1010.17,242.5 1002.5,242.5C 1002.97,221.766 1002.47,201.1 1001,180.5C 997.48,173.144 991.646,170.311 983.5,172C 980.474,172.623 978.474,173.79 977.5,175.5C 975.597,176.947 973.93,178.614 972.5,180.5C 972.19,179.262 971.69,179.262 971,180.5C 969.714,183.405 968.714,186.405 968,189.5C 967.5,207.164 967.333,224.83 967.5,242.5C 960.167,242.5 952.833,242.5 945.5,242.5C 945.5,213.5 945.5,184.5 945.5,155.5C 952.5,155.5 959.5,155.5 966.5,155.5C 966.34,157.199 966.506,158.866 967,160.5C 967.464,159.906 967.631,159.239 967.5,158.5C 968.29,159.609 968.79,160.942 969,162.5C 970.039,161.29 971.206,160.29 972.5,159.5C 972.56,160.043 972.893,160.376 973.5,160.5C 984.357,153.121 996.023,151.621 1008.5,156C 1018.38,161.575 1023.88,170.075 1025,181.5C 1025.48,180.552 1025.65,179.552 1025.5,178.5 Z"/></g>
<g><path style="opacity:1" fill="#2b2d30" d="M 1090.5,153.5 C 1101.53,156.216 1109.53,162.549 1114.5,172.5C 1118.19,182.569 1119.19,192.903 1117.5,203.5C 1098.84,204.333 1080.18,204.833 1061.5,205C 1060.98,205.561 1060.64,206.228 1060.5,207C 1060.87,210.172 1061.87,212.338 1063.5,213.5C 1066.37,218.867 1070.71,222.7 1076.5,225C 1086.07,226.224 1095.4,225.39 1104.5,222.5C 1106.63,223.103 1108.96,223.103 1111.5,222.5C 1112.38,227.804 1113.05,233.137 1113.5,238.5C 1097.95,243.821 1082.12,244.821 1066,241.5C 1065.24,241.57 1064.74,241.903 1064.5,242.5C 1050.66,237.532 1041.82,227.865 1038,213.5C 1035.48,200.965 1036.15,188.631 1040,176.5C 1041.12,173.244 1042.95,170.578 1045.5,168.5C 1058.05,155.951 1073.05,150.951 1090.5,153.5 Z"/></g>
<g><path style="opacity:1" fill="#090a0a" d="M 833.5,191.5 C 833.631,192.239 833.464,192.906 833,193.5C 829.903,180.946 826.737,168.446 823.5,156C 815.479,155.168 807.479,155.335 799.5,156.5C 801.321,162.116 802.987,167.782 804.5,173.5C 804.457,174.416 804.124,175.083 803.5,175.5C 801.598,168.628 799.598,161.794 797.5,155C 806.827,154.5 816.161,154.334 825.5,154.5C 828.007,166.863 830.674,179.196 833.5,191.5 Z"/></g>
<g><path style="opacity:1" fill="#060708" d="M 909.5,154.5 C 918.349,154.174 927.016,154.507 935.5,155.5C 934.833,157.833 934.167,160.167 933.5,162.5C 932.249,160.275 932.582,158.109 934.5,156C 926.507,155.5 918.507,155.334 910.5,155.5C 909.809,160.598 908.642,165.598 907,170.5C 906.536,169.906 906.369,169.239 906.5,168.5C 907.5,163.833 908.5,159.167 909.5,154.5 Z"/></g>
<g><path style="opacity:1" fill="#131415" d="M 1025.5,178.5 C 1025.65,179.552 1025.48,180.552 1025,181.5C 1023.88,170.075 1018.38,161.575 1008.5,156C 996.023,151.621 984.357,153.121 973.5,160.5C 972.893,160.376 972.56,160.043 972.5,159.5C 983.973,151.41 996.306,149.91 1009.5,155C 1018.94,160.06 1024.28,167.894 1025.5,178.5 Z"/></g>
<g><path style="opacity:1" fill="#121213" d="M 460.5,160.5 C 441.381,150.577 422.714,151.243 404.5,162.5C 403.893,162.376 403.56,162.043 403.5,161.5C 412.329,154.893 422.329,151.893 433.5,152.5C 443.603,151.936 452.603,154.603 460.5,160.5 Z"/></g>
<g><path style="opacity:1" fill="#101011" d="M 1090.5,153.5 C 1073.05,150.951 1058.05,155.951 1045.5,168.5C 1051.26,160.104 1059.26,154.938 1069.5,153C 1076.54,152.28 1083.54,152.447 1090.5,153.5 Z"/></g>
<g><path style="opacity:1" fill="#2b2e31" d="M 833.5,191.5 C 835.344,197.875 837.344,204.209 839.5,210.5C 839.721,213.097 840.221,213.097 841,210.5C 846,192.5 851,174.5 856,156.5C 863.079,155.52 870.245,155.187 877.5,155.5C 882.149,174.619 887.316,193.619 893,212.5C 893.464,211.906 893.631,211.239 893.5,210.5C 894.29,211.609 894.79,212.942 895,214.5C 898.549,198.971 902.382,183.637 906.5,168.5C 906.369,169.239 906.536,169.906 907,170.5C 908.642,165.598 909.809,160.598 910.5,155.5C 918.507,155.334 926.507,155.5 934.5,156C 932.582,158.109 932.249,160.275 933.5,162.5C 933.672,163.492 933.338,164.158 932.5,164.5C 932.565,164.062 932.399,163.728 932,163.5C 925.099,184.869 918.599,206.369 912.5,228C 912.57,228.765 912.903,229.265 913.5,229.5C 912.336,233.659 911.003,237.659 909.5,241.5C 901.141,241.449 892.474,241.449 883.5,241.5C 879.672,226.187 875.838,210.854 872,195.5C 871.626,193.509 870.793,191.842 869.5,190.5C 868.224,188.438 867.39,186.104 867,183.5C 861.631,202.663 856.131,221.663 850.5,240.5C 850.565,240.062 850.399,239.728 850,239.5C 849.626,240.416 849.126,241.25 848.5,242C 844.5,242.167 840.5,242.333 836.5,242.5C 832.075,242.463 827.909,241.796 824,240.5C 823.536,241.094 823.369,241.761 823.5,242.5C 822.566,241.432 822.232,240.099 822.5,238.5C 819.438,224.25 815.604,209.917 811,195.5C 810.667,194.833 810.333,194.167 810,193.5C 809.601,193.728 809.435,194.062 809.5,194.5C 807.367,188.33 805.367,181.997 803.5,175.5C 804.124,175.083 804.457,174.416 804.5,173.5C 802.987,167.782 801.321,162.116 799.5,156.5C 807.479,155.335 815.479,155.168 823.5,156C 826.737,168.446 829.903,180.946 833,193.5C 833.464,192.906 833.631,192.239 833.5,191.5 Z"/></g>
<g><path style="opacity:1" fill="#2c2f32" d="M 1167.5,177.5 C 1166.71,178.401 1165.71,179.068 1164.5,179.5C 1164.44,178.957 1164.11,178.624 1163.5,178.5C 1159.18,182.138 1156.68,186.804 1156,192.5C 1154.61,209.128 1154.11,225.795 1154.5,242.5C 1147.17,242.5 1139.83,242.5 1132.5,242.5C 1132.5,213.5 1132.5,184.5 1132.5,155.5C 1139.17,155.5 1145.83,155.5 1152.5,155.5C 1152.34,157.857 1152.5,160.19 1153,162.5C 1153.49,161.207 1153.66,159.873 1153.5,158.5C 1154.31,160.631 1154.81,162.964 1155,165.5C 1155.28,164.584 1155.78,163.918 1156.5,163.5C 1156.43,163.938 1156.6,164.272 1157,164.5C 1164.11,155.738 1173.28,152.404 1184.5,154.5C 1184.5,161.5 1184.5,168.5 1184.5,175.5C 1178.38,175.09 1172.38,175.59 1166.5,177C 1166.73,177.399 1167.06,177.565 1167.5,177.5 Z"/></g>
<g><path style="opacity:1" fill="#2c2e32" d="M 570.5,182.5 C 569.503,202.326 569.17,222.326 569.5,242.5C 562.167,242.5 554.833,242.5 547.5,242.5C 547.94,222.121 547.44,201.788 546,181.5C 543.559,175.061 538.893,171.727 532,171.5C 527.115,171.846 522.615,173.346 518.5,176C 517.177,176.816 516.511,177.983 516.5,179.5C 513.39,182.402 511.89,186.068 512,190.5C 511.5,207.83 511.333,225.163 511.5,242.5C 504.167,242.5 496.833,242.5 489.5,242.5C 489.667,215.831 489.5,189.165 489,162.5C 488.832,189.336 488.332,216.003 487.5,242.5C 487.5,213.167 487.5,183.833 487.5,154.5C 495.5,154.5 503.5,154.5 511.5,154.5C 511.678,157.216 512.178,159.883 513,162.5C 526.535,151.305 541.368,149.472 557.5,157C 565.679,163.525 570.013,172.025 570.5,182.5 Z"/></g>
<g><path style="opacity:1" fill="#2160e1" d="M 63.5,131.5 C 63.7542,153.179 63.7542,174.846 63.5,196.5C 62.2858,174.854 62.2858,153.187 63.5,131.5 Z"/></g>
<g><path style="opacity:1" fill="#0d0e0f" d="M 617.5,152.5 C 634.959,150.476 648.792,156.476 659,170.5C 661.587,175.182 663.087,180.182 663.5,185.5C 663.657,186.873 663.49,188.207 663,189.5C 662.5,178.312 658,169.145 649.5,162C 639.64,155.738 628.973,152.571 617.5,152.5 Z"/></g>
<g><path style="opacity:1" fill="#171718" d="M 1153.5,158.5 C 1153.66,159.873 1153.49,161.207 1153,162.5C 1152.5,160.19 1152.34,157.857 1152.5,155.5C 1145.83,155.5 1139.17,155.5 1132.5,155.5C 1132.5,184.5 1132.5,213.5 1132.5,242.5C 1139.83,242.5 1147.17,242.5 1154.5,242.5C 1154.11,225.795 1154.61,209.128 1156,192.5C 1156.68,186.804 1159.18,182.138 1163.5,178.5C 1164.11,178.624 1164.44,178.957 1164.5,179.5C 1161.77,181.071 1159.94,183.405 1159,186.5C 1157.37,191.03 1156.37,195.696 1156,200.5C 1155.5,214.829 1155.33,229.163 1155.5,243.5C 1147.17,243.5 1138.83,243.5 1130.5,243.5C 1130.5,213.833 1130.5,184.167 1130.5,154.5C 1138.17,154.5 1145.83,154.5 1153.5,154.5C 1153.5,155.833 1153.5,157.167 1153.5,158.5 Z"/></g>
<g><path style="opacity:1" fill="#fafafa" d="M 632.5,173.5 C 637.471,176.775 639.804,181.442 639.5,187.5C 628.5,187.5 617.5,187.5 606.5,187.5C 610.056,173.388 618.722,168.722 632.5,173.5 Z"/></g>
<g><path style="opacity:1" fill="#fbfbfb" d="M 1073.5,171.5 C 1085.66,169.572 1093,174.572 1095.5,186.5C 1084.18,187.666 1072.85,187.832 1061.5,187C 1063.11,179.902 1067.11,174.736 1073.5,171.5 Z"/></g>
<g><path style="opacity:1" fill="#fcfcfc" d="M 450.5,184.5 C 453.531,195.01 453.031,205.344 449,215.5C 446.545,220.149 442.712,222.983 437.5,224C 434.518,224.498 431.518,224.665 428.5,224.5C 421.517,222.348 417.017,217.682 415,210.5C 412.249,200.071 413.249,190.071 418,180.5C 425.274,172.952 433.774,171.452 443.5,176C 446.454,178.441 448.787,181.275 450.5,184.5 Z"/></g>
<g><path style="opacity:1" fill="#101011" d="M 893.5,210.5 C 893.631,211.239 893.464,211.906 893,212.5C 887.316,193.619 882.149,174.619 877.5,155.5C 870.245,155.187 863.079,155.52 856,156.5C 851,174.5 846,192.5 841,210.5C 840.221,213.097 839.721,213.097 839.5,210.5C 844.811,191.925 849.811,173.258 854.5,154.5C 862.5,154.5 870.5,154.5 878.5,154.5C 883.501,173.173 888.501,191.84 893.5,210.5 Z"/></g>
<g><path style="opacity:1" fill="#010203" d="M 378.5,173.5 C 379.833,177.833 379.833,182.167 378.5,186.5C 378.5,182.833 378.5,179.167 378.5,175.5C 364.496,175.667 350.496,175.5 336.5,175C 350.673,174.831 364.673,174.331 378.5,173.5 Z"/></g>
<g><path style="opacity:1" fill="#0d0d0e" d="M 1167.5,177.5 C 1167.06,177.565 1166.73,177.399 1166.5,177C 1172.38,175.59 1178.38,175.09 1184.5,175.5C 1184.5,168.5 1184.5,161.5 1184.5,154.5C 1173.28,152.404 1164.11,155.738 1157,164.5C 1156.6,164.272 1156.43,163.938 1156.5,163.5C 1163.25,154.467 1172.25,150.967 1183.5,153C 1185.45,160.894 1186.12,169.061 1185.5,177.5C 1179.48,176.274 1173.48,176.274 1167.5,177.5 Z"/></g>
<g><path style="opacity:1" fill="#121314" d="M 570.5,182.5 C 570.5,202.833 570.5,223.167 570.5,243.5C 562.167,243.5 553.833,243.5 545.5,243.5C 545.966,222.433 545.466,201.433 544,180.5C 541.346,175.163 537.013,172.83 531,173.5C 525.405,173.716 520.572,175.716 516.5,179.5C 516.511,177.983 517.177,176.816 518.5,176C 522.615,173.346 527.115,171.846 532,171.5C 538.893,171.727 543.559,175.061 546,181.5C 547.44,201.788 547.94,222.121 547.5,242.5C 554.833,242.5 562.167,242.5 569.5,242.5C 569.17,222.326 569.503,202.326 570.5,182.5 Z"/></g>
<g><path style="opacity:1" fill="#050607" d="M 1026.5,182.5 C 1026.5,202.833 1026.5,223.167 1026.5,243.5C 1018.17,243.5 1009.83,243.5 1001.5,243.5C 1001.94,222.788 1001.44,202.121 1000,181.5C 998.895,178.063 996.728,175.563 993.5,174C 987.986,173.07 982.652,173.57 977.5,175.5C 978.474,173.79 980.474,172.623 983.5,172C 991.646,170.311 997.48,173.144 1001,180.5C 1002.47,201.1 1002.97,221.766 1002.5,242.5C 1010.17,242.5 1017.83,242.5 1025.5,242.5C 1025.17,222.326 1025.5,202.326 1026.5,182.5 Z"/></g>
<g><path style="opacity:1" fill="#101111" d="M 932.5,164.5 C 926.322,186.211 919.989,207.878 913.5,229.5C 912.903,229.265 912.57,228.765 912.5,228C 918.599,206.369 925.099,184.869 932,163.5C 932.399,163.728 932.565,164.062 932.5,164.5 Z"/></g>
<g><path style="opacity:1" fill="#040506" d="M 632.5,173.5 C 632.897,172.475 633.563,172.308 634.5,173C 639.3,177.411 641.3,182.745 640.5,189C 629.167,189.667 617.833,189.667 606.5,189C 617.674,188.83 628.674,188.33 639.5,187.5C 639.804,181.442 637.471,176.775 632.5,173.5 Z"/></g>
<g><path style="opacity:1" fill="#000000" d="M 378.5,186.5 C 378.5,189.5 378.5,192.5 378.5,195.5C 364.5,195.5 350.5,195.5 336.5,195.5C 336.167,195.5 335.833,195.5 335.5,195.5C 349.323,194.504 363.323,194.171 377.5,194.5C 377.194,191.615 377.527,188.948 378.5,186.5 Z"/></g>
<g><path style="opacity:1" fill="#131517" d="M 42.5,65.5 C 42.3333,144.501 42.5,223.501 43,302.5C 44.1585,305.493 46.3252,307.16 49.5,307.5C 111.332,308.333 173.332,308.833 235.5,309C 173.167,309.667 110.833,309.667 48.5,309C 44.6667,307.833 42.1667,305.333 41,301.5C 40.3333,223.167 40.3333,144.833 41,66.5C 41.3333,65.8333 41.6667,65.1667 42,64.5C 42.3988,64.7284 42.5654,65.0618 42.5,65.5 Z"/></g>
<g><path style="opacity:1" fill="#2963e3" d="M 221.5,152.5 C 221.667,166.504 221.5,180.504 221,194.5C 220.653,199.297 219.819,203.963 218.5,208.5C 217.876,208.083 217.543,207.416 217.5,206.5C 218.859,200.914 219.692,195.247 220,189.5C 220.169,176.993 220.669,164.66 221.5,152.5 Z"/></g>
<g><path style="opacity:1" fill="#141516" d="M 460.5,160.5 C 471.447,167.749 477.281,178.082 478,191.5C 480.117,206.965 476.284,220.632 466.5,232.5C 465.957,232.44 465.624,232.107 465.5,231.5C 470.494,226.513 473.661,220.513 475,213.5C 480.269,192.895 475.435,175.228 460.5,160.5 Z"/></g>
<g><path style="opacity:1" fill="#080809" d="M 1114.5,172.5 C 1117.05,175.614 1118.55,179.281 1119,183.5C 1119.5,190.826 1119.67,198.159 1119.5,205.5C 1100.5,205.5 1081.5,205.5 1062.5,205.5C 1062.4,208.237 1062.73,210.904 1063.5,213.5C 1061.87,212.338 1060.87,210.172 1060.5,207C 1060.64,206.228 1060.98,205.561 1061.5,205C 1080.18,204.833 1098.84,204.333 1117.5,203.5C 1119.19,192.903 1118.19,182.569 1114.5,172.5 Z"/></g>
<g><path style="opacity:1" fill="#07090a" d="M 516.5,179.5 C 515.68,181.812 514.847,184.146 514,186.5C 513.5,205.497 513.333,224.497 513.5,243.5C 504.651,243.826 495.984,243.493 487.5,242.5C 488.332,216.003 488.832,189.336 489,162.5C 489.5,189.165 489.667,215.831 489.5,242.5C 496.833,242.5 504.167,242.5 511.5,242.5C 511.333,225.163 511.5,207.83 512,190.5C 511.89,186.068 513.39,182.402 516.5,179.5 Z"/></g>
<g><path style="opacity:1" fill="#1f2226" d="M 37.5,25.5 C 35.205,28.2971 32.705,30.9638 30,33.5C 28.2752,36.674 26.9419,40.0073 26,43.5C 25.5,139.833 25.3333,236.166 25.5,332.5C 24.8333,237.5 24.1667,142.5 23.5,47.5C 24.6737,37.7925 29.3404,30.4592 37.5,25.5 Z"/></g>
<g><path style="opacity:1" fill="#0d0e10" d="M 967.5,158.5 C 967.631,159.239 967.464,159.906 967,160.5C 966.506,158.866 966.34,157.199 966.5,155.5C 959.5,155.5 952.5,155.5 945.5,155.5C 945.5,184.5 945.5,213.5 945.5,242.5C 952.833,242.5 960.167,242.5 967.5,242.5C 967.333,224.83 967.5,207.164 968,189.5C 968.714,186.405 969.714,183.405 971,180.5C 971.69,179.262 972.19,179.262 972.5,180.5C 971.229,183.343 970.396,186.343 970,189.5C 969.5,207.497 969.333,225.497 969.5,243.5C 960.833,243.5 952.167,243.5 943.5,243.5C 943.5,213.833 943.5,184.167 943.5,154.5C 951.5,154.5 959.5,154.5 967.5,154.5C 967.5,155.833 967.5,157.167 967.5,158.5 Z"/></g>
<g><path style="opacity:1" fill="#0b0c0d" d="M 450.5,184.5 C 451.966,185.347 452.8,186.68 453,188.5C 453.667,195.167 453.667,201.833 453,208.5C 449.822,221.823 441.656,227.156 428.5,224.5C 431.518,224.665 434.518,224.498 437.5,224C 442.712,222.983 446.545,220.149 449,215.5C 453.031,205.344 453.531,195.01 450.5,184.5 Z"/></g>
<g><path style="opacity:1" fill="#0f1011" d="M 822.5,238.5 C 817.797,224.046 813.464,209.38 809.5,194.5C 809.435,194.062 809.601,193.728 810,193.5C 810.333,194.167 810.667,194.833 811,195.5C 815.604,209.917 819.438,224.25 822.5,238.5 Z"/></g>
<g><path style="opacity:1" fill="#151516" d="M 770.5,234.5 C 754.496,244.408 737.162,247.574 718.5,244C 702.331,241.962 689.998,234.129 681.5,220.5C 681.435,220.062 681.601,219.728 682,219.5C 690.847,232.987 703.347,240.82 719.5,243C 737.419,245.96 754.086,242.793 769.5,233.5C 770.107,233.624 770.44,233.957 770.5,234.5 Z"/></g>
<g><path style="opacity:1" fill="#010102" d="M 850.5,240.5 C 850.5,241.5 850.5,242.5 850.5,243.5C 841.318,243.827 832.318,243.493 823.5,242.5C 823.369,241.761 823.536,241.094 824,240.5C 827.909,241.796 832.075,242.463 836.5,242.5C 840.5,242.333 844.5,242.167 848.5,242C 849.126,241.25 849.626,240.416 850,239.5C 850.399,239.728 850.565,240.062 850.5,240.5 Z"/></g>
<g><path style="opacity:1" fill="#151517" d="M 869.5,190.5 C 870.793,191.842 871.626,193.509 872,195.5C 875.838,210.854 879.672,226.187 883.5,241.5C 892.474,241.449 901.141,241.449 909.5,241.5C 900.895,243.471 891.895,244.138 882.5,243.5C 878.324,225.798 873.991,208.131 869.5,190.5 Z"/></g>
<g><path style="opacity:1" fill="#121213" d="M 459.5,237.5 C 456.68,240.081 453.346,241.914 449.5,243C 437.003,246.455 424.67,245.955 412.5,241.5C 412.735,240.903 413.235,240.57 414,240.5C 429.611,245.284 444.777,244.284 459.5,237.5 Z"/></g>
<g><path style="opacity:1" fill="#131314" d="M 657.5,223.5 C 658.313,228.399 659.313,233.232 660.5,238C 644.405,245.13 627.738,246.797 610.5,243C 599.624,239.95 591.624,233.45 586.5,223.5C 586.435,223.062 586.601,222.728 587,222.5C 593.776,233.645 603.609,240.479 616.5,243C 630.847,244.546 644.847,243.046 658.5,238.5C 657.965,234.489 657.298,230.489 656.5,226.5C 656.52,225.274 656.853,224.274 657.5,223.5 Z"/></g>
<g><path style="opacity:1" fill="#151516" d="M 1064.5,242.5 C 1064.74,241.903 1065.24,241.57 1066,241.5C 1082.12,244.821 1097.95,243.821 1113.5,238.5C 1113.05,233.137 1112.38,227.804 1111.5,222.5C 1108.96,223.103 1106.63,223.103 1104.5,222.5C 1106.99,221.226 1109.66,220.56 1112.5,220.5C 1113.05,226.074 1114.05,231.574 1115.5,237C 1115.18,238.653 1114.18,239.653 1112.5,240C 1096.69,245.916 1080.69,246.75 1064.5,242.5 Z"/></g>
<g><path style="opacity:1" fill="#010203" d="M 23.5,47.5 C 24.1667,142.5 24.8333,237.5 25.5,332.5C 25.7845,334.415 25.4511,336.081 24.5,337.5C 23.5094,240.855 23.1761,144.189 23.5,47.5 Z"/></g>
<g><path style="opacity:1" fill="#e1e4e6" d="M 125.5,329.5 C 138.171,329.333 150.838,329.5 163.5,330C 164.833,332.333 164.833,334.667 163.5,337C 150.5,337.667 137.5,337.667 124.5,337C 123.083,334.257 123.416,331.757 125.5,329.5 Z"/></g>
<g><path style="opacity:1" fill="#1d1f20" d="M 131.5,331.5 C 133.76,332.238 133.927,333.238 132,334.5C 130.272,333.648 130.105,332.648 131.5,331.5 Z"/></g>
<g><path style="opacity:1" fill="#505456" d="M 158.5,331.5 C 161.861,332.203 162.194,333.537 159.5,335.5C 157.358,334.563 157.024,333.23 158.5,331.5 Z"/></g>
<g><path style="opacity:1" fill="#020305" d="M 251.5,351.5 C 247.389,355.556 242.389,358.056 236.5,359C 174.168,359.5 111.834,359.667 49.5,359.5C 111.332,358.667 173.332,358.167 235.5,358C 238.637,357.399 241.637,356.399 244.5,355C 243.5,354.667 242.5,354.333 241.5,354C 245.088,353.853 248.421,353.02 251.5,351.5 Z"/></g>
</svg>
